<svg xmlns="http://www.w3.org/2000/svg" width="234" height="333"><g transform="translate(0 -719.362)"><rect width="233.244" height="332.244" x=".378" y="719.74" rx="8.919" ry="8.946" style="fill:#fff;fill-opacity:1;stroke:gray;stroke-width:.75599998;stroke-linecap:butt;stroke-linejoin:miter;stroke-miterlimit:4;stroke-dasharray:none;stroke-opacity:1"/><g style="stroke-width:3.18132734"><path d="M2406.706 536.549h85.256v295.685h-85.256z" style="fill:#000;fill-opacity:1;stroke:none;stroke-width:3.18132734" transform="matrix(.05649 0 0 .05667 37.01 867.034)"/><path d="M2917.856 395.129c67.135 120.804 23.601 273.145-97.235 340.262-120.836 67.117-273.216 23.594-340.35-97.21-17.88-32.173-28.44-67.893-30.889-104.572-9.342 137.92-128.747 242.091-266.662 232.714-137.914-9.378-242.11-128.753-232.73-266.631 9.38-137.878 128.785-242.049 266.7-232.671 36.205 2.462 71.442 12.765 103.724 30.221-118.192-70.885-156.875-224.529-85.945-343.145 70.93-118.617 224.613-157.29 343.261-86.379 118.647 70.912 157.33 224.555 86.4 343.172-21.34 35.69-51.243 65.5-86.812 86.882 121.024-66.97 273.404-23.448 340.538 97.357z" style="fill:#000;fill-opacity:1;stroke:none;stroke-width:3.18132734" transform="matrix(.05649 0 0 .05667 37.01 867.034)"/></g><g style="stroke-width:3.18132734"><path d="M2406.706 536.549h85.256v295.685h-85.256z" style="fill:#000;fill-opacity:1;stroke:none;stroke-width:3.18132734" transform="matrix(.05649 0 0 .05667 -79.73 766.911)"/><path d="M2917.856 395.129c67.135 120.804 23.601 273.145-97.235 340.262-120.836 67.117-273.216 23.594-340.35-97.21-17.88-32.173-28.44-67.893-30.889-104.572-9.342 137.92-128.747 242.091-266.662 232.714-137.914-9.378-242.11-128.753-232.73-266.631 9.38-137.878 128.785-242.049 266.7-232.671 36.205 2.462 71.442 12.765 103.724 30.221-118.192-70.885-156.875-224.529-85.945-343.145 70.93-118.617 224.613-157.29 343.261-86.379 118.647 70.912 157.33 224.555 86.4 343.172-21.34 35.69-51.243 65.5-86.812 86.882 121.024-66.97 273.404-23.448 340.538 97.357z" style="fill:#000;fill-opacity:1;stroke:none;stroke-width:3.18132734" transform="matrix(.05649 0 0 .05667 -79.73 766.911)"/></g><g style="stroke-width:3.18132734"><path d="M2406.706 536.549h85.256v295.685h-85.256z" style="fill:#000;fill-opacity:1;stroke:none;stroke-width:3.18132734" transform="matrix(.01883 0 0 .0189 -28.915 764.98)"/><path d="M2917.856 395.129c67.135 120.804 23.601 273.145-97.235 340.262-120.836 67.117-273.216 23.594-340.35-97.21-17.88-32.173-28.44-67.893-30.889-104.572-9.342 137.92-128.747 242.091-266.662 232.714-137.914-9.378-242.11-128.753-232.73-266.631 9.38-137.878 128.785-242.049 266.7-232.671 36.205 2.462 71.442 12.765 103.724 30.221-118.192-70.885-156.875-224.529-85.945-343.145 70.93-118.617 224.613-157.29 343.261-86.379 118.647 70.912 157.33 224.555 86.4 343.172-21.34 35.69-51.243 65.5-86.812 86.882 121.024-66.97 273.404-23.448 340.538 97.357z" style="fill:#000;fill-opacity:1;stroke:none;stroke-width:3.18132734" transform="matrix(.01883 0 0 .0189 -28.915 764.98)"/></g><g style="font-style:normal;font-variant:normal;font-weight:700;font-stretch:normal;font-size:3.77201033px;line-height:0%;font-family:&quot;Levenim MT&quot;;-inkscape-font-specification:&quot;Sans Bold&quot;;letter-spacing:0;word-spacing:0;fill:#000;fill-opacity:1;stroke:none;stroke-width:.99999994"><path d="m25.848 752.973-7.71 24.172q-.307.941-1.554.941h-3.027q-.94 0-.94-.593 0-.573 3.864-11.575 2.25-6.34 4.48-12.66H11.9q-.062.9-.369 2.619-.286.184-.613.184H8.547q-.982 0-.982-.716 0-.348.593-6.442h17.69Z" aria-label="7" style="font-size:41.88299561px;line-height:1.25;stroke-width:.99999994" transform="scale(1.02988 .971)"/></g><g style="stroke-width:3.18132734"><path d="M2406.706 536.549h85.256v295.685h-85.256z" style="fill:#000;fill-opacity:1;stroke:none;stroke-width:3.18132734" transform="matrix(.01883 0 0 -.0189 171.243 1006.744)"/><path d="M2917.856 395.129c67.135 120.804 23.601 273.145-97.235 340.262-120.836 67.117-273.216 23.594-340.35-97.21-17.88-32.173-28.44-67.893-30.889-104.572-9.342 137.92-128.747 242.091-266.662 232.714-137.914-9.378-242.11-128.753-232.73-266.631 9.38-137.878 128.785-242.049 266.7-232.671 36.205 2.462 71.442 12.765 103.724 30.221-118.192-70.885-156.875-224.529-85.945-343.145 70.93-118.617 224.613-157.29 343.261-86.379 118.647 70.912 157.33 224.555 86.4 343.172-21.34 35.69-51.243 65.5-86.812 86.882 121.024-66.97 273.404-23.448 340.538 97.357z" style="fill:#000;fill-opacity:1;stroke:none;stroke-width:3.18132734" transform="matrix(.01883 0 0 -.0189 171.243 1006.744)"/></g><g style="font-style:normal;font-variant:normal;font-weight:700;font-stretch:normal;font-size:3.77201033px;line-height:0%;font-family:&quot;Levenim MT&quot;;-inkscape-font-specification:&quot;Sans Bold&quot;;letter-spacing:0;word-spacing:0;fill:#000;fill-opacity:1;stroke:none;stroke-width:.99999994"><path d="m-201.364-1071.684-7.71 24.173q-.306.94-1.554.94h-3.027q-.94 0-.94-.593 0-.572 3.865-11.575 2.25-6.34 4.478-12.659h-9.06q-.06.9-.367 2.618-.287.184-.614.184h-2.372q-.982 0-.982-.716 0-.348.593-6.442h17.69z" aria-label="7" style="font-size:41.88299561px;line-height:1.25;stroke-width:.99999994" transform="scale(-1.02988 -.971)"/></g><g style="stroke-width:3.18132734"><path d="M2406.706 536.549h85.256v295.685h-85.256z" style="fill:#000;fill-opacity:1;stroke:none;stroke-width:3.18132734" transform="matrix(.05649 0 0 .05667 -21.36 816.973)"/><path d="M2917.856 395.129c67.135 120.804 23.601 273.145-97.235 340.262-120.836 67.117-273.216 23.594-340.35-97.21-17.88-32.173-28.44-67.893-30.889-104.572-9.342 137.92-128.747 242.091-266.662 232.714-137.914-9.378-242.11-128.753-232.73-266.631 9.38-137.878 128.785-242.049 266.7-232.671 36.205 2.462 71.442 12.765 103.724 30.221-118.192-70.885-156.875-224.529-85.945-343.145 70.93-118.617 224.613-157.29 343.261-86.379 118.647 70.912 157.33 224.555 86.4 343.172-21.34 35.69-51.243 65.5-86.812 86.882 121.024-66.97 273.404-23.448 340.538 97.357z" style="fill:#000;fill-opacity:1;stroke:none;stroke-width:3.18132734" transform="matrix(.05649 0 0 .05667 -21.36 816.973)"/></g><g style="stroke-width:3.18132734"><path d="M2406.706 536.549h85.256v295.685h-85.256z" style="fill:#000;fill-opacity:1;stroke:none;stroke-width:3.18132734" transform="matrix(.05649 0 0 .05667 37.01 766.911)"/><path d="M2917.856 395.129c67.135 120.804 23.601 273.145-97.235 340.262-120.836 67.117-273.216 23.594-340.35-97.21-17.88-32.173-28.44-67.893-30.889-104.572-9.342 137.92-128.747 242.091-266.662 232.714-137.914-9.378-242.11-128.753-232.73-266.631 9.38-137.878 128.785-242.049 266.7-232.671 36.205 2.462 71.442 12.765 103.724 30.221-118.192-70.885-156.875-224.529-85.945-343.145 70.93-118.617 224.613-157.29 343.261-86.379 118.647 70.912 157.33 224.555 86.4 343.172-21.34 35.69-51.243 65.5-86.812 86.882 121.024-66.97 273.404-23.448 340.538 97.357z" style="fill:#000;fill-opacity:1;stroke:none;stroke-width:3.18132734" transform="matrix(.05649 0 0 .05667 37.01 766.911)"/></g><g style="stroke-width:3.18132734"><path d="M2406.706 536.549h85.256v295.685h-85.256z" style="fill:#000;fill-opacity:1;stroke:none;stroke-width:3.18132734" transform="matrix(.05649 0 0 .05667 -79.73 867.034)"/><path d="M2917.856 395.129c67.135 120.804 23.601 273.145-97.235 340.262-120.836 67.117-273.216 23.594-340.35-97.21-17.88-32.173-28.44-67.893-30.889-104.572-9.342 137.92-128.747 242.091-266.662 232.714-137.914-9.378-242.11-128.753-232.73-266.631 9.38-137.878 128.785-242.049 266.7-232.671 36.205 2.462 71.442 12.765 103.724 30.221-118.192-70.885-156.875-224.529-85.945-343.145 70.93-118.617 224.613-157.29 343.261-86.379 118.647 70.912 157.33 224.555 86.4 343.172-21.34 35.69-51.243 65.5-86.812 86.882 121.024-66.97 273.404-23.448 340.538 97.357z" style="fill:#000;fill-opacity:1;stroke:none;stroke-width:3.18132734" transform="matrix(.05649 0 0 .05667 -79.73 867.034)"/></g><g style="stroke-width:3.18132734"><path d="M2406.706 536.549h85.256v295.685h-85.256z" style="fill:#000;fill-opacity:1;stroke:none;stroke-width:3.18132734" transform="matrix(.05649 0 0 -.05667 -79.73 1004.813)"/><path d="M2917.856 395.129c67.135 120.804 23.601 273.145-97.235 340.262-120.836 67.117-273.216 23.594-340.35-97.21-17.88-32.173-28.44-67.893-30.889-104.572-9.342 137.92-128.747 242.091-266.662 232.714-137.914-9.378-242.11-128.753-232.73-266.631 9.38-137.878 128.785-242.049 266.7-232.671 36.205 2.462 71.442 12.765 103.724 30.221-118.192-70.885-156.875-224.529-85.945-343.145 70.93-118.617 224.613-157.29 343.261-86.379 118.647 70.912 157.33 224.555 86.4 343.172-21.34 35.69-51.243 65.5-86.812 86.882 121.024-66.97 273.404-23.448 340.538 97.357z" style="fill:#000;fill-opacity:1;stroke:none;stroke-width:3.18132734" transform="matrix(.05649 0 0 -.05667 -79.73 1004.813)"/></g><g style="stroke-width:3.18132734"><path d="M2406.706 536.549h85.256v295.685h-85.256z" style="fill:#000;fill-opacity:1;stroke:none;stroke-width:3.18132734" transform="matrix(.05649 0 0 -.05667 37.01 1004.813)"/><path d="M2917.856 395.129c67.135 120.804 23.601 273.145-97.235 340.262-120.836 67.117-273.216 23.594-340.35-97.21-17.88-32.173-28.44-67.893-30.889-104.572-9.342 137.92-128.747 242.091-266.662 232.714-137.914-9.378-242.11-128.753-232.73-266.631 9.38-137.878 128.785-242.049 266.7-232.671 36.205 2.462 71.442 12.765 103.724 30.221-118.192-70.885-156.875-224.529-85.945-343.145 70.93-118.617 224.613-157.29 343.261-86.379 118.647 70.912 157.33 224.555 86.4 343.172-21.34 35.69-51.243 65.5-86.812 86.882 121.024-66.97 273.404-23.448 340.538 97.357z" style="fill:#000;fill-opacity:1;stroke:none;stroke-width:3.18132734" transform="matrix(.05649 0 0 -.05667 37.01 1004.813)"/></g></g></svg>