<svg xmlns="http://www.w3.org/2000/svg" width="234" height="333"><g transform="translate(0 -719.362)"><rect width="233.244" height="332.244" x=".378" y="719.74" fill="#fff" stroke="gray" rx="8.919" ry="8.946"/><path d="M16.403 775.12h1.606v5.59h-1.606z"/><path d="M26.028 772.448a4.738 4.738 0 0 1-1.83 6.43 4.705 4.705 0 0 1-6.41-1.836 4.73 4.73 0 0 1-.581-1.977 4.718 4.718 0 0 1-5.021 4.399c-2.597-.178-4.56-2.434-4.383-5.04.177-2.606 2.425-4.575 5.022-4.397a4.77 4.77 0 0 1 1.953.57c-2.225-1.339-2.954-4.243-1.618-6.485a4.704 4.704 0 0 1 6.464-1.632 4.739 4.739 0 0 1 1.627 6.486 4.772 4.772 0 0 1-1.635 1.642 4.711 4.711 0 0 1 6.412 1.84zM216.561 996.603h1.606v-5.588h-1.606z"/><path d="M226.186 999.276a4.738 4.738 0 0 0-1.83-6.43 4.705 4.705 0 0 0-6.41 1.836 4.73 4.73 0 0 0-.581 1.977 4.718 4.718 0 0 0-5.021-4.399c-2.597.178-4.56 2.434-4.383 5.04.177 2.606 2.425 4.575 5.022 4.397a4.77 4.77 0 0 0 1.953-.57c-2.225 1.339-2.954 4.243-1.618 6.485a4.704 4.704 0 0 0 6.464 1.632 4.739 4.739 0 0 0 1.627-6.486 4.772 4.772 0 0 0-1.635-1.642 4.711 4.711 0 0 0 6.412-1.84zM114.595 897.44h4.816v16.757h-4.816z"/><path d="M143.47 889.426c3.792 6.846 1.333 15.48-5.493 19.283-6.826 3.803-15.434 1.337-19.226-5.51a14.175 14.175 0 0 1-1.745-5.925c-.528 7.816-7.273 13.719-15.064 13.188-7.79-.532-13.677-7.297-13.147-15.11.53-7.814 7.275-13.717 15.066-13.186 2.045.14 4.036.723 5.86 1.713-6.677-4.017-8.863-12.724-4.856-19.446 4.007-6.722 12.689-8.914 19.391-4.895 6.702 4.018 8.888 12.725 4.88 19.447a14.313 14.313 0 0 1-4.903 4.924c6.836-3.795 15.444-1.33 19.237 5.517zM26.62 755.514h-3.866l-1.528-5.836h-7.974l-1.594 5.836H7.79l7.534-28.335H19.1zm-6.79-11.095-2.591-9.728-2.605 9.728zM207.38 1016.211h3.868l1.528 5.837h7.973l1.595-5.837h3.866l-7.534 28.337h-3.774zm6.791 11.096 2.592 9.729 2.604-9.729z"/></g></svg>