<svg xmlns="http://www.w3.org/2000/svg" width="234" height="333"><g transform="translate(0 -719.362)"><rect width="233.244" height="332.244" x=".378" y="719.74" rx="8.919" ry="8.946" style="fill:#fff;fill-opacity:1;stroke:gray;stroke-width:.75590551;stroke-linecap:butt;stroke-linejoin:miter;stroke-miterlimit:4;stroke-dasharray:none;stroke-opacity:1"/><path d="m58.63 814.076 28.243-28.336-28.243-28.337-28.244 28.337ZM58.63 1014.321l28.243-28.336-28.243-28.337-28.244 28.337ZM58.63 914.199l28.243-28.337-28.243-28.336-28.244 28.336ZM175.37 814.076l28.244-28.336-28.244-28.337-28.243 28.337ZM175.37 1014.321l28.244-28.336-28.244-28.337-28.243 28.337zM117 864.137l28.244-28.336L117 807.464l-28.244 28.337ZM175.37 914.199l28.244-28.337-28.244-28.336-28.243 28.336zM17.206 780.702l9.414-9.445-9.414-9.446-9.415 9.446zM216.794 991.022l9.415 9.446-9.415 9.445-9.414-9.445z" style="fill:red;fill-opacity:1;stroke:none;stroke-width:1"/><g aria-label="7" style="font-style:normal;font-variant:normal;font-weight:700;font-stretch:normal;font-size:3.77201176px;line-height:0%;font-family:&quot;Levenim MT&quot;;-inkscape-font-specification:&quot;Sans Bold&quot;;letter-spacing:0;word-spacing:0;fill:red;fill-opacity:1;stroke:none;stroke-width:1"><path d="m25.848 752.972-7.71 24.173q-.307.94-1.554.94h-3.027q-.94 0-.94-.592 0-.573 3.864-11.575 2.25-6.34 4.48-12.66H11.9q-.062.9-.369 2.618-.286.185-.613.185H8.547q-.982 0-.982-.716 0-.348.593-6.442h17.69Z" style="font-size:41.88301086px;line-height:1.25;stroke-width:1" transform="scale(1.02988 .971)"/></g><g aria-label="7" style="font-style:normal;font-variant:normal;font-weight:700;font-stretch:normal;font-size:3.77201176px;line-height:0%;font-family:&quot;Levenim MT&quot;;-inkscape-font-specification:&quot;Sans Bold&quot;;letter-spacing:0;word-spacing:0;fill:red;fill-opacity:1;stroke:none;stroke-width:1"><path d="m-201.364-1071.684-7.71 24.173q-.307.94-1.554.94h-3.027q-.94 0-.94-.593 0-.572 3.865-11.575 2.25-6.34 4.478-12.659h-9.06q-.06.9-.367 2.618-.287.184-.614.184h-2.372q-.982 0-.982-.716 0-.348.593-6.442h17.69z" style="font-size:41.88301086px;line-height:1.25;stroke-width:1" transform="scale(-1.02988 -.971)"/></g></g></svg>