<svg xmlns="http://www.w3.org/2000/svg" width="234" height="333"><g transform="translate(0 -719.362)"><rect width="233.244" height="332.244" x=".378" y="719.74" rx="8.919" ry="8.946" style="fill:#fff;fill-opacity:1;stroke:gray;stroke-width:.75590551;stroke-linecap:butt;stroke-linejoin:miter;stroke-miterlimit:4;stroke-dasharray:none;stroke-opacity:1"/><path d="m58.63 814.076 28.243-28.336-28.243-28.337-28.244 28.337ZM58.63 1014.321l28.243-28.336-28.243-28.337-28.244 28.337ZM58.63 947.573l28.243-28.337L58.63 890.9l-28.244 28.336ZM58.63 880.825l28.243-28.337-28.243-28.337-28.244 28.337ZM175.37 814.076l28.244-28.336-28.244-28.337-28.243 28.337ZM175.37 1014.321l28.244-28.336-28.244-28.337-28.243 28.337zM175.37 947.573l28.244-28.337L175.37 890.9l-28.243 28.336ZM175.37 880.825l28.244-28.337-28.244-28.337-28.243 28.337ZM117 914.199l28.244-28.337L117 857.526l-28.244 28.336ZM17.206 780.702l9.414-9.445-9.414-9.446-9.415 9.446zM216.794 991.022l9.415 9.446-9.415 9.445-9.414-9.445z" style="fill:red;fill-opacity:1;stroke:none;stroke-width:1"/><g aria-label="9" style="font-style:normal;font-variant:normal;font-weight:700;font-stretch:normal;font-size:3.77201176px;line-height:0%;font-family:&quot;Levenim MT&quot;;-inkscape-font-specification:&quot;Sans Bold&quot;;letter-spacing:0;word-spacing:0;fill:red;fill-opacity:1;stroke:none;stroke-width:1"><path d="M26.868 734.108q0 5.99-2.125 9.74-2.66 4.709-8.19 4.709-3.235 0-5.34-1.282-2.546-1.57-2.546-4.632 0-.67.938-.67h2.832q.555 0 .938.632.574.938.88 1.206.785.631 2.297.631 2.545 0 3.962-2.373 1.11-1.914 1.244-4.708-2.24 1.78-5.359 1.78-3.962 0-6.316-2.794-2.22-2.622-2.22-6.66 0-4.249 2.43-6.718 2.431-2.488 6.661-2.488 9.914 0 9.914 13.627zm-5.225-4.307q0-2.086-1.13-3.54-1.243-1.608-3.253-1.608-2.067 0-3.292 1.57-1.11 1.435-1.11 3.578 0 2.182 1.091 3.598 1.187 1.55 3.311 1.55 2.105 0 3.292-1.569 1.09-1.416 1.09-3.579z" style="font-size:39.19484329px;line-height:1.25;stroke-width:1" transform="scale(.9908 1.0093)"/></g><g aria-label="9" style="font-style:normal;font-variant:normal;font-weight:700;font-stretch:normal;font-size:3.77201176px;line-height:0%;font-family:&quot;Levenim MT&quot;;-inkscape-font-specification:&quot;Sans Bold&quot;;letter-spacing:0;word-spacing:0;fill:red;fill-opacity:1;stroke:none;stroke-width:1"><path d="M-209.307-1021.302q0 5.99-2.125 9.742-2.66 4.708-8.19 4.708-3.235 0-5.34-1.283-2.546-1.569-2.546-4.631 0-.67.938-.67h2.833q.555 0 .937.632.574.938.88 1.205.785.632 2.297.632 2.546 0 3.962-2.373 1.11-1.914 1.244-4.708-2.24 1.78-5.359 1.78-3.961 0-6.315-2.794-2.22-2.622-2.22-6.66 0-4.25 2.43-6.718 2.43-2.488 6.66-2.488 9.914 0 9.914 13.626zm-5.225-4.306q0-2.086-1.13-3.54-1.243-1.608-3.253-1.608-2.067 0-3.291 1.57-1.11 1.435-1.11 3.578 0 2.182 1.09 3.598 1.187 1.55 3.311 1.55 2.106 0 3.292-1.569 1.091-1.416 1.091-3.579z" style="font-size:39.19484329px;line-height:1.25;stroke-width:1" transform="scale(-.9908 -1.0093)"/></g></g></svg>