<svg xmlns="http://www.w3.org/2000/svg" width="234" height="333"><defs><filter id="a" style="color-interpolation-filters:sRGB"><feGaussianBlur stdDeviation=".94"/></filter><filter id="b" style="color-interpolation-filters:sRGB"><feGaussianBlur stdDeviation=".94"/></filter></defs><g transform="translate(0 -719.362)"><rect width="233.244" height="332.244" x=".378" y="719.74" rx="8.919" ry="8.946" style="fill:#fff;fill-opacity:1;stroke:gray;stroke-width:.756;stroke-linecap:butt;stroke-linejoin:miter;stroke-miterlimit:4;stroke-dasharray:none;stroke-opacity:1"/><g aria-label="J" style="font-style:normal;font-variant:normal;font-weight:700;font-stretch:normal;font-size:3.77201px;line-height:0%;font-family:&quot;Levenim MT&quot;;-inkscape-font-specification:&quot;Sans Bold&quot;;letter-spacing:0;word-spacing:0;fill:red;fill-opacity:1;stroke:none;stroke-width:1"><path d="M23.441 846.622q0 3.884-.405 5.634-.705 3.051-2.988 4.524-1.814 1.195-4.353 1.195-5.186 0-8.835-4.545l4.311-4.033q2.411 2.73 4.375 2.73 1.344 0 1.728-1.664.17-.725.17-2.71v-21.958h5.997z" style="font-size:43.7026px;line-height:1.25;fill:red;stroke-width:1" transform="scale(1.13562 .88058)"/></g><g aria-label="O" style="font-style:normal;font-variant:normal;font-weight:700;font-stretch:normal;font-size:3.77201px;line-height:0%;font-family:&quot;Levenim MT&quot;;-inkscape-font-specification:&quot;Sans Bold&quot;;letter-spacing:0;word-spacing:0;fill:red;fill-opacity:1;stroke:none;stroke-width:1"><path d="M32.763 636.122q0 4.826-3.293 8.194-3.292 3.352-8.118 3.352-4.886 0-8.223-3.367-3.338-3.368-3.338-8.254 0-3.157 1.519-5.818 1.518-2.66 4.24-4.24 2.675-1.548 5.772-1.548 4.81 0 8.148 3.443 3.293 3.413 3.293 8.238zm-4.21-.03q0-3.127-2.06-5.307-2.104-2.225-5.216-2.225-3.187 0-5.232 2.21-2.014 2.15-2.014 5.352 0 3.669 2.63 5.803 2.045 1.669 4.691 1.669 3.082 0 5.172-2.225 2.03-2.165 2.03-5.277z" style="font-weight:700;font-size:30.7888px;line-height:1.25;-inkscape-font-specification:&quot;Levenim MT Bold&quot;;fill:red;stroke-width:1" transform="scale(.81968 1.21999)"/></g><g aria-label="K" style="font-style:normal;font-variant:normal;font-weight:700;font-stretch:normal;font-size:3.77201px;line-height:0%;font-family:&quot;Levenim MT&quot;;-inkscape-font-specification:&quot;Sans Bold&quot;;letter-spacing:0;word-spacing:0;fill:red;fill-opacity:1;stroke:none;stroke-width:1"><path d="M27.839 788.675h-6.116l-8.362-12.029v12.029H8.148v-27.096h5.213v9.32l7.35-9.32h6.207l-9.468 12.083z" style="font-weight:700;font-size:37.7245px;line-height:1.25;-inkscape-font-specification:&quot;Levenim MT Bold&quot;;fill:red;stroke-width:1" transform="scale(.95622 1.04578)"/></g><g aria-label="E" style="font-style:normal;font-variant:normal;font-weight:700;font-stretch:normal;font-size:3.77201px;line-height:0%;font-family:&quot;Levenim MT&quot;;-inkscape-font-specification:&quot;Sans Bold&quot;;letter-spacing:0;word-spacing:0;fill:red;fill-opacity:1;stroke:none;stroke-width:1"><path d="M24.128 948.185H7.062v-31.263h17.066v5.823H12.97v5.653h11.158v5.718H12.97v8.225h11.158z" style="font-weight:700;font-size:43.5266px;line-height:1.25;-inkscape-font-specification:&quot;Levenim MT Bold&quot;;fill:red;stroke-width:1" transform="scale(1.1033 .90638)"/></g><g aria-label="R" style="font-style:normal;font-variant:normal;font-weight:700;font-stretch:normal;font-size:3.77201px;line-height:0%;font-family:&quot;Levenim MT&quot;;-inkscape-font-specification:&quot;Sans Bold&quot;;letter-spacing:0;word-spacing:0;fill:red;fill-opacity:1;stroke:none;stroke-width:1"><path d="M26.147 910.234h-6.002l-6.491-12.218h-.51v12.218H7.652v-28.85h5.825q3.844 0 5.649.491 2.922.765 4.432 3.197 1.236 1.98 1.236 4.687 0 5.688-5.472 7.649zM19.479 889.7q0-1.98-1.805-2.647-.823-.294-3.02-.294h-1.51v5.903h1.726q2.177 0 3.138-.432 1.47-.666 1.47-2.53z" style="font-weight:700;font-size:40.1658px;line-height:1.25;-inkscape-font-specification:&quot;Levenim MT Bold&quot;;fill:red;stroke-width:1" transform="scale(1.0181 .98222)"/></g><g aria-label="J" style="font-style:normal;font-variant:normal;font-weight:700;font-stretch:normal;font-size:3.77201px;line-height:0%;font-family:&quot;Levenim MT&quot;;-inkscape-font-specification:&quot;Sans Bold&quot;;letter-spacing:0;word-spacing:0;fill:red;fill-opacity:1;stroke:none;stroke-width:1"><path d="M-182.614-1165.378q0 3.884-.406 5.634-.704 3.051-2.987 4.524-1.814 1.195-4.353 1.195-5.186 0-8.835-4.545l4.31-4.034q2.412 2.732 4.375 2.732 1.345 0 1.729-1.665.17-.725.17-2.71v-21.958h5.997z" style="font-size:43.7026px;line-height:1.25;fill:red;stroke-width:1" transform="scale(-1.13562 -.88058)"/></g><g aria-label="O" style="font-style:normal;font-variant:normal;font-weight:700;font-stretch:normal;font-size:3.77201px;line-height:0%;font-family:&quot;Levenim MT&quot;;-inkscape-font-specification:&quot;Sans Bold&quot;;letter-spacing:0;word-spacing:0;fill:red;fill-opacity:1;stroke:none;stroke-width:1"><path d="M-253.001-816.125q0 4.826-3.292 8.194-3.293 3.352-8.119 3.352-4.885 0-8.223-3.367-3.337-3.368-3.337-8.254 0-3.157 1.518-5.818 1.518-2.66 4.24-4.24 2.675-1.548 5.772-1.548 4.811 0 8.149 3.443 3.292 3.413 3.292 8.238zm-4.21-.03q0-3.127-2.059-5.307-2.105-2.225-5.217-2.225-3.187 0-5.231 2.21-2.015 2.15-2.015 5.352 0 3.669 2.631 5.803 2.045 1.669 4.69 1.669 3.082 0 5.172-2.225 2.03-2.165 2.03-5.277z" style="font-weight:700;font-size:30.7888px;line-height:1.25;-inkscape-font-specification:&quot;Levenim MT Bold&quot;;fill:red;stroke-width:1" transform="scale(-.81968 -1.21999)"/></g><g aria-label="K" style="font-style:normal;font-variant:normal;font-weight:700;font-stretch:normal;font-size:3.77201px;line-height:0%;font-family:&quot;Levenim MT&quot;;-inkscape-font-specification:&quot;Sans Bold&quot;;letter-spacing:0;word-spacing:0;fill:red;fill-opacity:1;stroke:none;stroke-width:1"><path d="M-216.874-905.489h-6.116l-8.362-12.028v12.028h-5.213v-27.096h5.213v9.32l7.35-9.32h6.207l-9.468 12.084z" style="font-weight:700;font-size:37.7245px;line-height:1.25;-inkscape-font-specification:&quot;Levenim MT Bold&quot;;fill:red;stroke-width:1" transform="scale(-.95622 -1.04578)"/></g><g aria-label="E" style="font-style:normal;font-variant:normal;font-weight:700;font-stretch:normal;font-size:3.77201px;line-height:0%;font-family:&quot;Levenim MT&quot;;-inkscape-font-specification:&quot;Sans Bold&quot;;letter-spacing:0;word-spacing:0;fill:red;fill-opacity:1;stroke:none;stroke-width:1"><path d="M-187.965-1006.543h-17.066v-31.264h17.066v5.824h-11.158v5.653h11.158v5.717h-11.158v8.225h11.158z" style="font-weight:700;font-size:43.5266px;line-height:1.25;-inkscape-font-specification:&quot;Levenim MT Bold&quot;;fill:red;stroke-width:1" transform="scale(-1.1033 -.90638)"/></g><g aria-label="R" style="font-style:normal;font-variant:normal;font-weight:700;font-stretch:normal;font-size:3.77201px;line-height:0%;font-family:&quot;Levenim MT&quot;;-inkscape-font-specification:&quot;Sans Bold&quot;;letter-spacing:0;word-spacing:0;fill:red;fill-opacity:1;stroke:none;stroke-width:1"><path d="M-203.692-893.565h-6.002l-6.491-12.219h-.51v12.219h-5.492v-28.85h5.825q3.844 0 5.649.49 2.922.765 4.432 3.197 1.235 1.98 1.235 4.687 0 5.688-5.471 7.65zm-6.668-20.534q0-1.981-1.805-2.648-.823-.294-3.02-.294h-1.51v5.903h1.726q2.177 0 3.138-.431 1.47-.667 1.47-2.53z" style="font-weight:700;font-size:40.1658px;line-height:1.25;-inkscape-font-specification:&quot;Levenim MT Bold&quot;;fill:red;stroke-width:1" transform="scale(-1.0181 -.98222)"/></g><path d="M164.77 822.392c-1.26-.864-1.002-2.815-.974-4.27.017-.89.193-1.832.696-2.588.225-.338.556-.693.974-.776.804-.16 1.785.106 2.366.647.582.54.672 1.435.696 2.2.019.574-.32 1.113-.417 1.681-.162.941.446 2.173-.279 2.847-.724.673-2.237.824-3.062.259z" style="fill:#fff;fill-opacity:1;stroke:#131f67;stroke-width:.755906;stroke-miterlimit:4;stroke-dasharray:none;stroke-opacity:1"/><path d="m129.064 880.383-2.291-6.218-6.024.457 2.063 4.187z" style="fill:#000;fill-opacity:1;stroke:#000;stroke-width:.755906;stroke-miterlimit:4;stroke-dasharray:none;stroke-opacity:1"/><path d="M81.462 993.422c.583 1.412 1.452 2.276.91 5.834-.824 1.667-5.32 4.286-5.39 6.194.316 1.78-1.164 3.588 7.943 5.234l23.233 3.26c11.065-.394 8.802-1.752 11.037-4.559.734-2.314.57-7.645-.33-8.815-1.945-4.181-4.778-4.034-5.117-2.63-1.437 2.476-.73 1.128-.9 4.336 1.31-2.712 3.561-2.473 2.476-3.427 1.965.364 2.092 2.54.622 5.756-1.443 3.096-6.07 1.826-7.923 2.3l-6.478-2.026-8.297-5.035c-2.08-3.842-.264-4.68.343-6.45z" style="fill:#131f67;fill-opacity:1;stroke:#131f67;stroke-width:.755906;stroke-miterlimit:4;stroke-dasharray:none;stroke-opacity:.941176"/><path d="M93.814 993.45c-2.127.501-3.811-.006-5.94.49l-1.275 2.724zm-12.577-.142c2.045 1.568 1.544.685 3.357 2.415l2.577-2.515c-1.996.077-3.951.7-5.934.1z" style="fill:#000;fill-opacity:1;stroke:#000;stroke-width:.755906;stroke-miterlimit:4;stroke-dasharray:none;stroke-opacity:1"/><path d="M133.905 987.78c.684 1.323 1.599 2.095 1.379 5.575-.654 1.674-4.778 4.54-4.682 6.389.457 1.699-.82 3.557 8.129 4.475l22.747 1.435c10.667-1.2 8.361-2.346 10.283-5.226.513-2.292-.102-7.434-1.073-8.5-3.395-2.946-5.77-3.832-5.978-2.45-1.178 2.502-.954.233-.843 3.348 1.035-2.72 1.19-1.44 1.888-2.512 1.931.207 3.602 2.513 2.455 5.733-1.13 3.1-5.714 2.215-7.465 2.81l-6.438-1.48-8.454-4.257c-2.341-3.562-.656-4.506-.221-6.263z" style="fill:#131f67;fill-opacity:1;stroke:#131f67;stroke-width:.755906;stroke-miterlimit:4;stroke-dasharray:none;stroke-opacity:.941176"/><path d="M145.223 986.933c-1.3.157-3.005.49-4.112.533l-.872 4.335zm-11.175.856c1.948 2.722 4.173 4.075 5.467 4.01l-1.94-4.301s-2.687.552-3.527.29z" style="fill:#000;fill-opacity:1;stroke:#000;stroke-width:.755906;stroke-miterlimit:4;stroke-dasharray:none;stroke-opacity:1"/><path d="m110.293 903.36-16.14 1.86c-1.467 16.844-4.114 31.445-3.475 44.337l.425 3.569-1.132 1.791s-3.71 4.779-4.625 7.95c-2.495 8.635-.951 25.535-.828 32.458 1.21 1.453 1.652 2.32 1.652 2.32.72-2.254 2.27-3.212 2.27-3.212s2.291-22.68 6.255-35.24c2.08-6.586-.343.988 3.41-6.109.363-.911-.496-2.556-.496-2.556 6.362-15.736 8.544-31.407 12.684-47.17zm20.032 2.131-14.794.842c3.954 16.52 3.694 19.97 10.143 35.179l5.01 8.9-.146 2.81s.362 9.61.543 12.775c.526 9.218 5.932 21.734 5.932 21.734s1.528 2.17 2.573 4.585c.988-1.647.91-2.19 2.102-3.481-1.997-8.701-4.661-19.928-4.826-36.33 0 0 1.322-2.505.688-4.03-.21-.51-1.35-1.926-1.35-1.926-1.627-14.451-3.038-24.91-5.875-41.059z" style="fill:red;fill-opacity:1;stroke:#131f67;stroke-width:.755906;stroke-miterlimit:4;stroke-dasharray:none;stroke-opacity:.941176"/><path d="m110.23 903.592-1.905.028-14.172 1.865c-.191 2.503-.378 5.003-.56 7.487l14.813-.998c.587-2.793 1.185-5.59 1.824-8.382zm20.094 2.203-14.794.963c.444 2.117.913 4.225 1.402 6.314 3.204.515 6.885.974 9.416.825 1.383-.081 3.388-.595 5.02-1.076-.338-2.32-.682-4.665-1.045-7.026z" style="fill:#000;fill-opacity:1;stroke:#000;stroke-width:.25;stroke-miterlimit:4;stroke-dasharray:none;stroke-opacity:1"/><path d="M89.059 869.609s2.81 10.525 4.663 15.023c.478 1.161 1.438 2.477 1.438 2.477s-1.02 3.642-2.255 5.028c-4.235 4.75-12.558 15.325-11.55 15.653 0 0 2.858-.328 4.79.53 2.218.984 3.378-.122 5.72.57 2.9.857 5.5-.18 8.247-.322 3.687-.192 8.37-.683 12.06-.56 4.908.164 9.029 2.184 13.578 1.774 3.786-.341 9.253-2.691 9.253-2.691l-.588-2.068c2.819-.356 3.526-1.04 4.937-1.978-6.089-6.951-10.19-12.095-16.48-18.019 0 0 .909-2.812 1.233-4.247 1.296-5.734 2.838-17.38 2.838-17.38z" style="fill:#131f67;fill-opacity:1;stroke:#131f67;stroke-width:.755906;stroke-miterlimit:4;stroke-dasharray:none;stroke-opacity:.941176"/><path d="M92.995 879.456c.934 3.302-.192 2.265.734 4.59.133.335.29.66.466.987 3.194.084 10.137.114 13.902-1.007 4.399-1.31 13.404-6.267 13.404-6.267.883 1.11 1.535 1.956 2.478 2.735.035-.143.076-.318.103-.443.581-2.659.375-2.336.894-5.817-21.104-.781-31.83 5.2-31.98 5.222z" style="fill:#000;fill-opacity:1;stroke:#000;stroke-width:.377953;stroke-miterlimit:4;stroke-dasharray:none;stroke-opacity:1"/><path d="m140.094 852.324-.916 21.483c-1.767.056-4.487-1.229-8.983-2.517-5.132-1.47-3.392-10.602-4.468-12.63z" style="fill:#000;fill-opacity:1;stroke:#131f67;stroke-width:.755906;stroke-miterlimit:4;stroke-dasharray:none;stroke-opacity:.941176"/><path d="M151.374 827.167c4.579-.812 11.094 1.844 12.75 5.15 1.676 3.347 1.526 8.565-.635 11.685-3.3 4.764-18.488 13.345-24.617 14.644-4.825 1.022-3.276-12.69-1.542-18.076.944-2.933 4.681-4.468 7.022-6.702 2.34-2.234 3.65-6.104 7.021-6.701z" style="fill:#d40000;fill-opacity:1;stroke:#131f67;stroke-width:.755906;stroke-miterlimit:4;stroke-dasharray:none;stroke-opacity:.941176"/><path d="M113.345 824.53s10.15-3.368 14.815-1.342c6.336 2.752 11.414 11.234 12.621 17.694.93 4.978-12.19 10.701-12.19 10.701z" style="fill:#000;fill-opacity:1;stroke:#131f67;stroke-width:2.39093;stroke-miterlimit:4;stroke-dasharray:none;stroke-opacity:.941176"/><path d="M157.715 827.543c-2.017.331-5.46 4.628-5.46 4.628s.958 5.11 3.09 6.276c2.062 1.128 5.07.571 7.156-.516 2.226-1.16 3.816-3.991 3.837-6.285.027-2.953-5.023-4.693-8.622-4.103z" style="fill:#131f67;fill-opacity:1;stroke:#131f67;stroke-width:.755906;stroke-miterlimit:4;stroke-dasharray:none;stroke-opacity:1"/><path d="M95.236 821.486c-6.569 1.976-11.954 4.276-16.482 6.824l5.573 30.017c-8.022 2.68 4.443 15.608 3.435 23.586 8.5 2.202 12.222 2.097 18.209.055 5.039-2.34 9.69-4.976 14.779-7.346 3.96 1.717 5.245 4.427 8.314 5.761l1.12-14.89s-.176-14.174-.859-21.226c-.424-4.38.272-9.205-2.006-13.058-1.655-2.8-5.123-4.625-7.834-6.23-2.16-1.278-6.975-3.063-6.975-3.063z" style="fill:#d40000;fill-opacity:1;stroke:#131f67;stroke-width:.756;stroke-miterlimit:4;stroke-dasharray:none;stroke-opacity:.941176"/><path d="m114.46 830.214-3.56-.38-.406-2.966c-.596-2.947-1.023-.403.387-.646l.779-2.088 3.932 1.937z" style="fill:#000;fill-opacity:1;stroke:#000;stroke-width:2.39093;stroke-miterlimit:4;stroke-dasharray:none;stroke-opacity:1"/><path d="m118.864 823.03-3.658 6.732-1.83.634 2.303-7.155z" style="fill:#000;fill-opacity:1;stroke:#000;stroke-width:.755906;stroke-miterlimit:4;stroke-dasharray:none;stroke-opacity:1"/><path d="M90.279 791.828c.262 4.44-1.8 11.984 3.84 12.916 0 0 1.415 8.986 4.328 11.622 4.396 3.977 7.788 5.915 11.982 9.413 2.385 1.989 4.428 2.614 6.807 2.26 1.638-.244 4.386-1.354 3.932-2.838-1.612-5.264-5.64-9.961-5.824-15.4-.101-2.99 1.613-5.081 1.604-8.073-.004-1.158-.046-2.744-.017-3.902.043-1.722 1.825-3.17 1.787-4.89-.071-3.22-5.58-6.074-5.58-6.074l-11.631.494z" style="fill:#fff;fill-opacity:1;stroke:#131f67;stroke-width:.755906;stroke-miterlimit:4;stroke-dasharray:none;stroke-opacity:1"/><path d="M95.31 816.338c-4.64.968-6.123 4.027-8.936 7.66 3.391-1.949 5.152-2.996 9.05-1.74.379-3.2.08-3.105-.113-5.92z" style="fill:#131f67;fill-opacity:1;stroke:#131f67;stroke-width:.755906;stroke-miterlimit:4;stroke-dasharray:none;stroke-opacity:1"/><path d="M91.452 803.516c-.249-1.952-.466 6.015-3.648 8.638-.96.792-3.24 1.912-3.462 3.359 3.988-1.908 6.142-2.522 6.46-3.152-1.13 1.712-4.53 3.781-3.313 5.605 0 0 3.509-3.19 3.162-1.951-.358 1.282 1.261 4.228 1.261 4.228 1.016-1.287.288-5.111.971-4.466.941.887.651 4.487 1.942 4.635 2.118-.804 1.825-3.498 3.208-4.323 0 0-3.919-7.163-3.434-10.414.146-.974-3.032-1.252-3.147-2.159zM101.92 788.593l-5.754.065-5.898 5.434-.22 4.134s.91-3.12 2.027-2.683c1.105.432 3.126 9.29 3.126 9.29s1.39.597 1.017-.559c-.469-1.45-.434-4.251-.434-4.251s.154-1.241.254-3.139c.119-2.264.414-6.773.414-6.773l1.208 1.447 2.036-.974 1.777.81zm14.445.41 1.42 3.918.319-.64 1.206 2.825-.791-4.768z" style="fill:#e2cf00;fill-opacity:1;stroke:#131f67;stroke-width:.755906;stroke-miterlimit:4;stroke-dasharray:none;stroke-opacity:1"/><path d="m102.474 795.801-.571.99c2.64-.607 5.492-1.827 7.8-1.628l.26-1.695c-2.576.352-3.314.145-6.308 1.693zM112.678 793.401l-.492 1.94c1.255-.12 2.389-.382 4.922 1.006l-.167-.767c-1.173-1.378-2.46-2.207-4.262-2.179zM107.958 797.38c-1.193.22-2.735.472-3.609 1.493-.2.233-.36 1.199-.36 1.199s1.61.097 2.41.032c.58-.046 1.717-.356 1.717-.356s.394-.855.215-1.476c-.06-.207-.147-.935-.373-.893z" style="fill:#131f67;fill-opacity:1;stroke:#131f67;stroke-width:.755906;stroke-miterlimit:4;stroke-dasharray:none;stroke-opacity:1"/><path d="M111.603 795.529s-1.059 1.218-1.25 2.228c-.47 2.469 1.067 7.575 1.067 7.575s1.389 1.217 1.81 2.126c.157.338-.278.903-.674.91-1.507.027-3.734-.255-3.734-.255s.98 1.13 1.683 1.352c.94.296 2.211.429 2.971-.164.776-.606.568-1.16.615-2.101.033-.67-1.811-4.05-2.241-6.404.44-.108 1.514-.354 2.058-.823l-2.188-1.428z" style="fill:#131f67;fill-opacity:1;stroke:#131f67;stroke-width:.755906;stroke-miterlimit:4;stroke-dasharray:none;stroke-opacity:.941176"/><path d="M111.213 798.002c-.258.513-.22 1.623-.22 1.623s1.207.267 1.938.387c.346.057 1.473.273 1.473.273s-.053-.521-.22-.834c-.465-.87-1.346-1.895-2.263-2.018-.418-.056-.576.306-.708.569z" style="fill:#131f67;fill-opacity:1;stroke:#131f67;stroke-width:.755906;stroke-miterlimit:4;stroke-dasharray:none;stroke-opacity:1"/><path d="M110.418 812.751c-1.364-.254-4.958-1.885-5.651-.764-.903 1.462 1.577 4.598 2.712 5.912 1.114 1.29 3.026 2.153 4.754 1.763.766-.173 1.541-.843 1.657-1.568.184-1.151-.594-1.967-.824-3.11-.196-.976.82-2.208.23-3.035-.403-.562-2.879.802-2.879.802z" style="fill:#000;fill-opacity:1;stroke:#131f67;stroke-width:.755906;stroke-miterlimit:4;stroke-dasharray:none;stroke-opacity:1"/><path d="M107.724 817.215c.002.887 2.273 2.482 3.892 2.256.879-.122 1.73-.286 1.672-1.578-.016-.365.748-.583-.454-1.08 0 0-.803.423-.955.831.23.267-.475.295-.937.363-1.611.253-3.218-.792-3.218-.792z" style="fill:#fff;fill-opacity:1;stroke:#131f67;stroke-width:.755906;stroke-miterlimit:4;stroke-dasharray:none;stroke-opacity:1"/><path d="M91.315 797.624c.28-.14.692-.002.93.193.906.74 1.234 3.16 1.234 3.16l-.669.498s-.373-2.595-1.32-2.62c-.307-.008-.709.605-.552.535.156-.07-.166-1.492.377-1.766z" style="fill:#131f67;fill-opacity:1;stroke:#131f67;stroke-width:.755906;stroke-miterlimit:4;stroke-dasharray:none;stroke-opacity:1"/><path d="M86.147 826.779c-2.131-.738-6.557-.988-8.576-.014-2.231 1.077-3.443 3.687-3.942 5.977-1.46 6.702 2.927 13.453 3.311 20.282.543 9.666-1.444 29.007-1.444 29.007 1.515 3.969 3.327 5.526 5.172 6.816l.792-8.473.459-22.275 2.605-4.87 12.755 7.02 4.695-2.103-4.504-3.107-.19-1.944-2.29-1.156s3.43-11.144 1.458-15.924c-2.053-4.981-4.923-7.373-10.3-9.236z" style="fill:#131f67;fill-opacity:.941176;stroke:#131f67;stroke-width:.755906;stroke-miterlimit:4;stroke-dasharray:none;stroke-opacity:1"/><path d="m112.3 831.258 2.2 18.472-.88-18.472z" style="fill:#131f67;fill-opacity:1;stroke:#131f67;stroke-width:.755906;stroke-miterlimit:4;stroke-dasharray:none;stroke-opacity:1"/><path d="M115.344 834.365c-2.44.013-4.902.347-7.231.976-2.471.667-6.573.861-6.9 3.233-.062.44.616.794 1.082.891 2.592.54 5.036-1.657 7.653-2.078 2.714-.438 5.49-.54 8.243-.461 1.928.055 4.29 1.828 5.743.65.39-.317.33-1.043.022-1.43-1.278-1.608-4.048-1.492-6.189-1.676-.805-.07-1.61-.109-2.423-.105zm1.003 6.042c-1.65-.038-3.321.192-4.898.613-2.206.59-5.444.915-6.107 2.958-.121.372.208.892.6 1.028 1.766.614 3.477-1.427 5.32-1.806a25.018 25.018 0 0 1 6.223-.507c1.786.087 3.761 1.833 5.277.948.361-.211.516-.802.326-1.158-.818-1.53-3.291-1.684-5.108-1.947a13.523 13.523 0 0 0-1.634-.13z" style="fill:#131f67;fill-opacity:1;stroke:#131f67;stroke-width:.755906;stroke-miterlimit:4;stroke-dasharray:none;stroke-opacity:1"/><rect width="2.036" height="68.49" x="279.349" y="785.841" rx=".271" ry="2.15" style="fill:#000;fill-opacity:1;stroke:#000;stroke-width:.756006;stroke-linejoin:round;stroke-miterlimit:4;stroke-dasharray:none;stroke-opacity:1" transform="matrix(.98893 .14836 -.17107 .98526 0 0)"/><path d="M119.803 855.62s4.256-2.133 6.421-3.572c1.002-.665 2.776-1.27 3.322-2.292.599-1.124-.113-2.126.531-3.228.426-.728 1.723-1.442 2.543-1.953 1.301-.812 3.861-1.541 3.861-1.541s.413 1.669.067 2.515c-.255.621-1.997 1.24-1.633 1.815.942 1.487 3.98.408 5.568-.487 1.024-.577 1.935-2.8 1.935-2.8s-3.377.083-3.253-.668c.138-.828 2.528-1.443 2.528-1.443s3.504.926 3.974 2.159c.374.98-.434 1.802-.446 2.838-.011.97.84 1.637.773 2.5-.103 1.328-1.12 2.454-1.768 3.643-.76 1.391-1.122 3.149-2.48 4.075-2.727 1.863-6.565 2.27-9.954 2.01-1.777-.136-3.223-1.576-4.989-1.35-1.918.244-4.574 2.785-4.574 2.785z" style="fill:#fff;fill-opacity:1;stroke:#131f67;stroke-width:.755906;stroke-miterlimit:4;stroke-dasharray:none;stroke-opacity:.941176"/><path d="M113.177 855.965s2.67-1.393 4.098-1.886c.784-.271 1.631-.814 2.428-.58 3.641 1.063 6.432 5.247 6.79 8.779.071.698-.546 1.381-1.02 1.928-1.446 1.67-4.563 3.515-4.563 3.515z" style="fill:#131f67;fill-opacity:1;stroke:#131f67;stroke-width:.755906;stroke-miterlimit:4;stroke-dasharray:none;stroke-opacity:.941176"/><path d="m81.918 858.099 8.317 16.568s6.374 3.986 9.609 4.32c8.507.88 15.771-2.848 21.686-8.598.985-.958 1.56-3.702 1.56-3.702.165-.39-1.808-7.853-4.762-9.526-2.115-1.199-4.359-2.512-4.359-2.512-4.495-2.418-11.787 1.387-16.69 5.6l-12.756-7.02Z" style="fill:#d40000;fill-opacity:1;stroke:#131f67;stroke-width:.755906;stroke-miterlimit:4;stroke-dasharray:none;stroke-opacity:.941176"/><path d="M156.873 825.181s.152 1.548.627 2.155c.997 1.277 4.158 1.283 4.158 1.283s-3.728.39-4.643 1.572c-.91 1.178.537 3.31 1.475 4.109 1.574 1.339 3.923.726 5.608-.027 2.941-1.312 6.267-6.967 6.267-6.967s1.78-4.885 1.213-7.24c-.424-1.763-2.696-2.765-4.453-3.536-2.13-.934-5.932-.387-5.932-.387s-.391 2.086.287 2.764c.808.808 3.51.558 3.51.558 2.835.628 2.342 1.897 2.702 3 0 0-3.074-1.744-4.807-2.006-1.274-.193-4.624.346-4.624.346s.555 1.69 1.063 2.365c.642.855 2.627.751 2.627.751l2.176 1.46s-2.528-.745-3.836-.767c-1.157-.019-3.418.567-3.418.567z" style="fill:#fff;fill-opacity:1;stroke:#131f67;stroke-width:.755906;stroke-miterlimit:4;stroke-dasharray:none;stroke-opacity:1"/><path d="M93.86 885.644c-.465.58-.604 1.724-.063 4.046 14.542.658 25.71-1.06 30.839-3.124.256-1.476.457-2.939-.714-4.057-3.928 1.578-16.498 3.797-30.062 3.135z" style="fill:#000;fill-opacity:1;stroke:#000;stroke-width:.755906;stroke-miterlimit:4;stroke-dasharray:none;stroke-opacity:1"/><path d="M111.606 884.369c.142 1.77.07 3.996.767 5.647.324.765 1.356 1.431 2.234 1.331 1.62-.184 3.73-.36 5.3-.795.734-.204.878-1.231.963-1.939.214-1.776-.025-3.49-.547-4.777-.19-.469-.39-1.121-.914-1.24-2.228-.509-5.052-.152-7.008.7-.423.183-.83.64-.795 1.073z" style="fill:#e2cf00;fill-opacity:1;stroke:#000;stroke-width:.755906;stroke-miterlimit:4;stroke-dasharray:none;stroke-opacity:1"/><path d="M77.954 827.178c-1.878 11.243 4.511 17.062 6.57 26.051 0 0-8.293-16.292-7.314-24.526.154-1.29.744-1.525.744-1.525z" style="fill:#fff;fill-opacity:1;stroke:#000;stroke-width:1.5;stroke-miterlimit:4;stroke-dasharray:none;stroke-opacity:1"/><path d="M78.55 827.7c-.74-.013-1.699.237-2.22.47-.88.393-1.124 1.738-1.124 1.738 1.929-1.43 3.821-.731 5.72-.334 0 0-.951-1.415-1.723-1.759-.174-.077-.405-.112-.652-.116zm-.317 4.305c-1.023.013-2.098.488-2.637 1.27-.179.26-.183 1.09.101.932.683-.382 2.64-.978 4.07-.571.639.182.64-.721.132-1.125-.456-.362-1.052-.513-1.666-.506zm2.365 5.076c-1.365.002-3.293.878-4.099 1.215-.465.195.037 1.423.537 1.33 1.058-.193 3.342-1.122 4.525-1.369.418-.087-.01-1.016-.425-1.115a2.28 2.28 0 0 0-.538-.06zm1.381 3.936c-1.044.008-1.851 1.115-3.453 1.814-.58.253.308 1.22.308 1.22s1.748-.55 3.661-1.578c.59-.317.37-1.345-.305-1.435-.072-.01-.141-.021-.21-.02zm1.568 4.332c-1.365.065-3.174 1.542-3.763 1.881-.287.166-.14.908.197.933.844.061 2.8-1.316 4.313-1.373.573-.021-.174-1.468-.747-1.44zm.924 4.878c-.911.073-1.936.52-2.68 1.538-.285.391.427 1.787.307 1.327-.158-.604 1.322-1.215 3.548-1.687.508-.107.202-1.038-.31-1.13a3.385 3.385 0 0 0-.865-.048z" style="fill:#000;fill-opacity:1;stroke:#000;stroke-width:.25;stroke-miterlimit:4;stroke-dasharray:none;stroke-opacity:1"/><path d="m81.918 858.099-.458 22.275c1.972-3.076 5.424-4.33 8.776-5.707zM71.33 773.609c-2.452 4.767-.168 10.579 1.18 16.184 1.333-4.596 2.89-9.533 6.874-11.692-1.987-3.158-5.302-3.272-8.054-4.492zM96.207 782.943c-.72-7.558-.48-15.046 1.34-22.417l1.963-.925 6.63 6.277c-.011 5.204-1.161 10.332.39 15.64zM130.526 761.867c.607 6.251.652 12.071 4.22 18.232-4.474-2.837-8.535-6.099-11.52-10.46 1.406-3.479 4.899-5.052 7.3-7.772z" style="fill:#000;fill-opacity:1;stroke:#000;stroke-width:.755906;stroke-miterlimit:4;stroke-dasharray:none;stroke-opacity:1"/><path d="M105.935 781.873c3.396-6.736 5.97-13.662 11.272-19.953 5.075-.795 8.321-.257 13.348-.172-5.204 6.48-10.517 11.587-12.332 20.1z" style="fill:#131f67;fill-opacity:1;stroke:#131f67;stroke-width:.756;stroke-miterlimit:4;stroke-dasharray:none;stroke-opacity:1"/><path d="M89.9 794.277c9.257-5.15 18.974-5.854 28.954-4-.156-1.798-.42-3.626.214-5.208-10.432-3.166-20.944-3.075-30.684 4.239 1.032 1.583 1.404 3.258 1.517 4.969z" style="fill:#131f67;fill-opacity:1;stroke:#131f67;stroke-width:.755906;stroke-miterlimit:4;stroke-dasharray:none;stroke-opacity:1"/><path d="M97.65 761.166c1.538 5.304 5.178 9.296 10.406 12.294.07-4.324-.517-8.521 2.772-13.46-2.371-1.635-4.233-2.01-7.394-2.249l-5.887 2.775z" style="fill:#d40000;fill-opacity:1;stroke:#d40000;stroke-width:.755906;stroke-miterlimit:4;stroke-dasharray:none;stroke-opacity:1"/><path d="M88.688 789.186c9.62-3.9 19.466-5.042 30.054-4.125-.25-1.236.184-2.322.909-3.344-11.262-1.375-22.644-1.104-32.848 4.616 1.213.684 1.526 1.78 1.886 2.853z" style="fill:#d40000;fill-opacity:1;stroke:#d40000;stroke-width:1;stroke-miterlimit:4;stroke-dasharray:none;stroke-opacity:1"/><path d="m161.25 817.048 2.392.13.358-.906h-2.51zM158.853 822.17l1.303-.275.076-1.24-1.685.139zM157.193 826.402l1.115.518.24-1.165-.16-.647-1.275.389z" style="fill:#fff;fill-opacity:1;stroke:#131f67;stroke-width:.755906;stroke-miterlimit:4;stroke-dasharray:none;stroke-opacity:1"/><path d="M112.889 1001.588c.005.032.028.318-.104.517-.134.203.083.163.083.163.164.029.105-.338.29-.536z" style="fill:#fff;fill-opacity:1;stroke:#000;stroke-width:2.39093;stroke-miterlimit:4;stroke-dasharray:none;stroke-opacity:1"/><path d="M77.038 1005.743c2.57 3.119 32.535 9.445 38.156 6.291 1.986-1.092 3.451-3.059 4.361-4.662l-.384 2.05c-.764.68-.968 2.523-2.701 3.44-1.41.622-3.857.84-8.435 1.072-5.995-1.045-13.023-1.831-18.902-2.63-5.338-.726-9.419-1.526-11.164-2.9-.765-.673-1.06-1.458-.93-2.66z" style="opacity:.25;fill:#000;fill-opacity:1;stroke:#000;stroke-width:.755906;stroke-miterlimit:4;stroke-dasharray:none;stroke-opacity:1"/><path d="M-287 898.27c52.987-11.463 33.102 14.3 70.046 7.13 33.82-15.084 28.753-17.591 27.788-62.463-5.06-48.954-41.301-18.35-52.666 15.709-15.58 32.766-23.246 31.868-45.169 39.625z" style="opacity:.13;fill:#fff;fill-opacity:1;stroke:#000;stroke-width:12.394;stroke-miterlimit:4;stroke-dasharray:none;stroke-opacity:1;filter:url(#a)" transform="matrix(.06684 0 0 .05565 132.229 956.65)"/><path d="M108.001 1006.906c-1.694.116-2.043 1.212-2.203 2.315-.16.662-.533.908-.346.31.191-1.4.173-2.601 2.176-2.75zM101.5 1004.874c-2.201.273-2.57 1.621-2.668 2.633.008.446-.219.69-.274-.152.174-1.837 1.608-2.405 2.537-2.666z" style="opacity:.25;fill:#fff;fill-opacity:1;stroke:#000;stroke-width:.755906;stroke-miterlimit:4;stroke-dasharray:none;stroke-opacity:1"/><path d="M115.151 1001.351c0 1.117-.974 2.023-2.176 2.023-1.202 0-2.176-.906-2.176-2.023s.974-2.023 2.176-2.023c1.202 0 2.176.906 2.176 2.023z" style="fill:#e2cf00;fill-opacity:1;stroke:#131f67;stroke-width:.755906;stroke-linejoin:round;stroke-miterlimit:4;stroke-dasharray:none;stroke-opacity:1"/><path d="M130.405 1000.211c2.777 2.826 32.562 6.728 37.774 3.263 1.843-1.203 3.104-3.214 3.853-4.832l-.198 2.012c-.687.714-.727 2.51-2.339 3.525-1.321.706-3.69 1.099-8.138 1.66-5.94-.567-12.865-.807-18.672-1.145-5.271-.307-9.322-.78-11.144-1.978-.804-.596-1.159-1.333-1.137-2.505z" style="opacity:.25;fill:#000;fill-opacity:1;stroke:#000;stroke-width:.755906;stroke-miterlimit:4;stroke-dasharray:none;stroke-opacity:1"/><path d="M-287 898.27c52.987-11.463 33.102 14.3 70.046 7.13 33.82-15.084 28.753-17.591 27.788-62.463-5.06-48.954-41.301-18.35-52.666 15.709-15.58 32.766-23.246 31.868-45.169 39.625z" style="opacity:.13;fill:#fff;fill-opacity:1;stroke:#000;stroke-width:12.7727;stroke-miterlimit:4;stroke-dasharray:none;stroke-opacity:1;filter:url(#b)" transform="matrix(.06464 -.00494 .00476 .05382 180.318 949.06)"/><path d="M161.184 999.457c-1.628.238-1.872 1.323-1.932 2.402-.098.652-.438.917-.308.326.064-1.368-.055-2.53 1.869-2.822z" style="opacity:.25;fill:#fff;fill-opacity:1;stroke:#000;stroke-width:2.39093;stroke-miterlimit:4;stroke-dasharray:none;stroke-opacity:1"/><path d="M154.726 997.968c-2.105.428-2.347 1.759-2.355 2.745.046.43-.152.683-.278-.128.01-1.79 1.35-2.445 2.226-2.766z" style="opacity:.25;fill:#fff;fill-opacity:1;stroke:#000;stroke-width:.755906;stroke-miterlimit:4;stroke-dasharray:none;stroke-opacity:1"/><path d="M138.894 816.863c-1.939 1.685-.795 3.997-1.007 6.55 1.366-1.764 2.467-4.224 4.75-4.599-.859-1.264-2.588-1.064-3.743-1.951z" style="fill:#d40000;fill-opacity:1;stroke:#d40000;stroke-width:.755906;stroke-miterlimit:4;stroke-dasharray:none;stroke-opacity:1"/><path d="M147.355 817.928c-.597 2.982-.645 3.607.27 6.93-1.856-1.896-3.88-3.854-4.76-6.265 1.216-1.433 2.88.288 4.49-.665zM135.269 814.932c-2.294 1.38-1.645 2.93-2.385 5.398 1.735-1.535 3.197-3.077 5.565-3.127-.15-1.635-2.205-1.242-3.18-2.27z" style="fill:#131f67;fill-opacity:1;stroke:#131f67;stroke-width:.755906;stroke-miterlimit:4;stroke-dasharray:none;stroke-opacity:1"/><path d="M149.647 816.82c.644.841 2.03 1.228 2.864 4.247-2.184-2.312-2.875-1.619-6.212-2.735 1.577-1.041 2.047-.916 3.348-1.512z" style="fill:#d40000;fill-opacity:1;stroke:#d40000;stroke-width:1;stroke-miterlimit:4;stroke-dasharray:none;stroke-opacity:1"/><path d="M146.673 815.088c-3.889 1.05-2.907 1.485-6.373-.847-.068.557-4.725.417-5.178.764 4.25 3.978 10.68 5.528 14.51 1.811-.42-.438-.931.051-2.958-1.728z" style="fill:#d40000;fill-opacity:1;stroke:#d40000;stroke-width:.755906;stroke-miterlimit:4;stroke-dasharray:none;stroke-opacity:1"/><path d="M148.45 810.185c-.769 4.432-3.302 7.738-5.657 7.385-2.355-.354-3.64-4.233-2.871-8.664.77-4.432 3.302-7.738 5.658-7.385 2.355.354 3.64 4.232 2.87 8.664z" style="fill:#fff;fill-opacity:1;stroke:#000;stroke-width:.377953;stroke-miterlimit:4;stroke-dasharray:none;stroke-opacity:1"/><path d="M143.926 810.183c-.435.215-.537.294-.803.564-.097.105-.29.357-.36.534a3.501 3.501 0 0 0-.172.579c-.082.476.03.8.21.816.161.007.39-.117.759-.422" style="fill:#fff;fill-opacity:1;fill-rule:evenodd;stroke:#131f67;stroke-width:.377953;stroke-miterlimit:4;stroke-dasharray:none;stroke-opacity:1"/><path d="M144.202 810.23c.34.331.41.436.57.77.058.129.155.423.163.612.008.189-.01.459-.034.6-.083.476-.298.75-.474.713-.157-.04-.333-.225-.579-.622" style="fill:#fff;fill-opacity:1;fill-rule:evenodd;stroke:#131f67;stroke-width:.377953;stroke-linejoin:bevel;stroke-miterlimit:4;stroke-dasharray:none;stroke-opacity:1"/><path d="M139.159 808.549c-.644-.805-.97-2.082-.819-3.386.167-1.436 1.22-2.73 2.569-3.354 1.509-.684 3.817-.589 5.214-.312.954.144 3 .923 3.66 1.555 1.162 1.087 1.648 2.455 1.447 3.901-.178 1.457-1.024 2.46-1.946 3.026" style="fill:#fff;fill-opacity:1;stroke:#131f67;stroke-width:.377953;stroke-linecap:round;stroke-linejoin:round;stroke-miterlimit:4;stroke-dasharray:none;stroke-opacity:1"/><path d="M139.603 811.483c.169.664.357 1.315.274 1.957-.217.496-.284 1.109-.23 1.613.063.69.618 1.581 1.264 1.947.667.346 1.1.474 1.89.593" style="fill:#fff;fill-opacity:1;stroke:#131f67;stroke-width:.377953;stroke-miterlimit:4;stroke-dasharray:none;stroke-opacity:1"/><path d="M140.246 811.867c.141.529.179.728.257 1.245.06.477.063.763.037 1.423" style="fill:#fff;fill-opacity:1;stroke:#131f67;stroke-width:.377953;stroke-miterlimit:4;stroke-dasharray:none;stroke-opacity:1"/><path d="M139.907 804.502c-.353.205-.38.589-.422 1.161-.03.435.19.901.138 1.295-.035.843-.441 1.63-.682 2.287-.22.763-.096 1.467.168 1.772.265.301.646.467 1.044.649.365.15.535.34.788.583.285.39.318.683.25 1.027" style="fill:#fff;fill-opacity:1;stroke:#131f67;stroke-width:.377953;stroke-linejoin:round;stroke-miterlimit:4;stroke-dasharray:none;stroke-opacity:1"/><path d="M147.862 812.722c-.385.581-.783 1.144-.922 1.778.038.534-.106 1.135-.328 1.598-.293.637-1.126 1.296-1.863 1.454-.738.16-1.191.154-1.982.036" style="fill:#fff;fill-opacity:1;stroke:#131f67;stroke-width:.377953;stroke-miterlimit:4;stroke-dasharray:none;stroke-opacity:1"/><g style="fill:#fff;fill-opacity:1;stroke:#131f67;stroke-width:9.70242;stroke-miterlimit:4;stroke-dasharray:none;stroke-opacity:1"><path d="M236.52 349.73c14.718 9.027 40.161 10.419 62.956 10.009 25.394-.129 47.133-1.963 61.409-10.597M241.67 373.28c16.238 10.204 35.334 13.708 57.326 12.878 22.842-.556 40.351-2.478 56.001-13.172" style="fill:#fff;fill-opacity:1;stroke:#131f67;stroke-width:9.70242;stroke-miterlimit:4;stroke-dasharray:none;stroke-opacity:1" transform="matrix(.03989 .00598 -.00644 .03708 133.835 798.788)"/><g style="fill:#fff;fill-opacity:1;stroke:#131f67;stroke-width:9.70242;stroke-miterlimit:4;stroke-dasharray:none;stroke-opacity:1"><path d="M229.89 385.64c17.367 20.948 41.608 24.585 69.173 25.315 29.519 1.077 59.166-10.645 66.819-25.314" style="fill:#fff;fill-opacity:1;stroke:#131f67;stroke-width:9.70242;stroke-miterlimit:4;stroke-dasharray:none;stroke-opacity:1" transform="matrix(.03989 .00598 -.00644 .03708 133.835 798.788)"/><g style="fill:#fff;fill-opacity:1;stroke:#131f67;stroke-width:9.70242;stroke-miterlimit:4;stroke-dasharray:none;stroke-opacity:1"><path d="m241.44 354.26-.416 41.212M254.97 358.63l-.208 44.126M269.96 360.5l-.416 46.208M283.49 361.54l-.209 46.832M298.68 361.96v46.832M313.25 361.75l.208 46.832" style="fill:#fff;fill-opacity:1;stroke:#131f67;stroke-width:9.70242;stroke-miterlimit:4;stroke-dasharray:none;stroke-opacity:1" transform="matrix(.03989 .00598 -.00644 .03708 133.835 798.788)"/><path d="m326.78 360.5.416 46" style="fill:#fff;fill-opacity:1;stroke:#131f67;stroke-width:9.70242;stroke-miterlimit:4;stroke-dasharray:none;stroke-opacity:1" transform="matrix(.03989 .00598 -.00644 .03708 133.818 798.786)"/><path d="m341.56 358 .208 44.126M355.3 352.59l.417 41.628" style="fill:#fff;fill-opacity:1;stroke:#131f67;stroke-width:9.70242;stroke-miterlimit:4;stroke-dasharray:none;stroke-opacity:1" transform="matrix(.03989 .00598 -.00644 .03708 133.835 798.788)"/></g></g></g><path d="M147.106 812.867c-.313.46-.416.638-.665 1.107-.219.435-.318.705-.517 1.34" style="fill:#fff;fill-opacity:1;stroke:#000;stroke-width:.377953;stroke-miterlimit:4;stroke-dasharray:none;stroke-opacity:1"/><path d="M140.998 807.607c.553-.007 1.083.014 1.63.038.73-.06.956.74.665 1.272-.33.462-.75.848-1.216 1.211-.36.273-.731.27-1.058.11-.267-.113-.497-.312-.71-.723-.066-.338-.143-.518-.229-.938-.058-.383.226-.902.918-.97z" style="fill:#131f67;fill-opacity:1;fill-rule:evenodd;stroke:#131f67;stroke-width:.377953;stroke-miterlimit:4;stroke-dasharray:none;stroke-opacity:1"/><path d="M149.979 805.99c.265.299.16.67.007 1.227-.119.422-.486.8-.57 1.189-.251.81-.132 1.675-.126 2.37-.05.788-.405 1.42-.76 1.633-.353.208-.942.26-1.21.31-.31.052-.642.18-.948.339-.378.243-.53.54-.582.886" style="fill:#fff;fill-opacity:1;stroke:#131f67;stroke-width:.377953;stroke-linejoin:round;stroke-miterlimit:4;stroke-dasharray:none;stroke-opacity:1"/><path d="M147.862 808.636a28.056 28.056 0 0 0-1.56-.44c-.673-.27-1.157.423-1.06 1.012.156.536.423 1.025.743 1.506.249.364.603.47.967.414.292-.03.577-.151.919-.48.177-.3.31-.45.534-.822.185-.347.091-.923-.543-1.19z" style="fill:#131f67;fill-opacity:1;fill-rule:evenodd;stroke:#131f67;stroke-width:.377953;stroke-miterlimit:4;stroke-dasharray:none;stroke-opacity:1"/><path d="M132.283 793.269c-1.707 1.422-1.5 3.774-1.67 5.943 1.198-1.492 2.388-2.996 4.41-3.303-.437-1.365-1.596-1.822-2.625-2.583zM142.768 800.093c.72-2.794 1.869-5.446 3.728-7.864l1.028-.094 2.17 3.051c-.728 1.862-1.968 3.559-1.993 5.647zM162.205 796.467c-.614 2.513-1.4 4.982-.718 7.82-1.54-1.651-3.103-3.754-3.785-5.82 1.099-1.185 3.081-1.231 4.504-2z" style="fill:#000;fill-opacity:1;stroke:#000;stroke-width:.755906;stroke-miterlimit:4;stroke-dasharray:none;stroke-opacity:1"/><path d="M147.262 800.705c2.607-2.425 4.177-3.857 7.605-5.84 2.087.27 5.087.867 7.416 1.567-3.411 2.077-7.151 2.492-9.292 5.884zM138.418 803.9c4.763-1.044 9.068-.109 13.11 1.967.197-.797.353-1.621.86-2.224-4.041-2.7-8.6-4.003-13.891-2.084.212.816.125 1.588-.079 2.341z" style="fill:#131f67;fill-opacity:1;stroke:#131f67;stroke-width:.755906;stroke-miterlimit:4;stroke-dasharray:none;stroke-opacity:1"/><path d="M146.556 792.387c-.047 2.083.994 3.942 2.86 5.632.613-1.543.925-3.117 3.02-4.502-.81-.865-1.567-1.218-2.907-1.675l-2.93.304z" style="fill:#d40000;fill-opacity:1;stroke:#d40000;stroke-width:.755906;stroke-miterlimit:4;stroke-dasharray:none;stroke-opacity:1"/><path d="M138.461 800.14c-1.202-2.678-3.825-4.8-6.248-6.898 1.128-1.107 2.505-1.224 4.088-1.601 3.585 2.422 5.512 5.359 6.892 8.466z" style="fill:#131f67;fill-opacity:1;stroke:#131f67;stroke-width:.755906;stroke-miterlimit:4;stroke-dasharray:none;stroke-opacity:1;filter:url(#filter4519-2)"/><path d="M138.644 801.542c4.735-.459 9.16.304 13.603 2.052.074-.566.422-.98.887-1.33-4.666-2.031-9.627-3.367-14.883-2.196.423.45.111.907.108 1.417z" style="fill:#d40000;fill-opacity:1;stroke:#d40000;stroke-width:.755906;stroke-miterlimit:4;stroke-dasharray:none;stroke-opacity:1"/><path d="m120.018 821.808.556-2.15-1.948-.89 1.392 3.04z" style="fill:#131f67;fill-opacity:1;stroke:#131f67;stroke-width:.755906;stroke-miterlimit:4;stroke-dasharray:none;stroke-opacity:1"/><path d="M165.711 992.867c.175 1.094-.637 2.113-1.815 2.276-1.177.163-2.273-.593-2.448-1.687-.175-1.095.637-2.113 1.815-2.276 1.177-.163 2.273.593 2.448 1.687z" style="fill:#e2cf00;fill-opacity:1;stroke:#131f67;stroke-width:.755906;stroke-linejoin:round;stroke-miterlimit:4;stroke-dasharray:none;stroke-opacity:1"/><path d="M95.572 821.75c-3.937 2.76-.052 4.9-.614 8.16 2.804-2.664 2.715-3.648 7.261-4.888-1.142-1.193-4.407-2.554-6.647-3.272z" style="fill:#131f67;fill-opacity:1;stroke:#131f67;stroke-width:.755906;stroke-miterlimit:4;stroke-dasharray:none;stroke-opacity:1"/><path d="M102.307 824.873c-3.6 2.945-.773 6.137-1.213 10.201 2.547-2.985 2.517-4.848 6.724-5.772-1.548-2.076-4.1-3.452-5.512-4.429zM121.425 825.891c1.268 2.91 2.377 2.048 3.99 5.837-3.623-1.973-6.717-2.546-10.572-3.544 1.653-1.047 5.416-.54 6.582-2.293z" style="fill:#131f67;fill-opacity:1;stroke:#131f67;stroke-width:.755906;stroke-miterlimit:4;stroke-dasharray:none;stroke-opacity:1"/><path d="M74.087 789.91c.175 1.094-.638 2.113-1.815 2.276-1.177.163-2.274-.593-2.449-1.687-.175-1.095.638-2.113 1.815-2.276 1.178-.163 2.274.593 2.449 1.687z" style="fill:#e2cf00;fill-opacity:1;stroke:#131f67;stroke-width:.755906;stroke-linejoin:round;stroke-miterlimit:4;stroke-dasharray:none;stroke-opacity:.941176"/><path d="M126.588 832.06c.175 1.095-.638 2.114-1.815 2.276-1.177.163-2.274-.592-2.449-1.687-.175-1.094.638-2.113 1.815-2.276 1.178-.162 2.274.593 2.449 1.687z" style="fill:#e2cf00;fill-opacity:1;stroke:#131f67;stroke-width:.755906;stroke-linejoin:round;stroke-miterlimit:4;stroke-dasharray:none;stroke-opacity:1"/><path d="M103.705 834.777c.175 1.095-.638 2.114-1.815 2.276-1.177.163-2.274-.592-2.449-1.687-.174-1.094.638-2.113 1.815-2.276 1.178-.162 2.274.593 2.449 1.687zM97.718 830.38c.175 1.094-.637 2.113-1.815 2.275-1.177.163-2.273-.593-2.448-1.687-.175-1.094.637-2.113 1.815-2.276 1.177-.162 2.273.593 2.448 1.687z" style="fill:#e2cf00;fill-opacity:1;stroke:#000;stroke-width:.755906;stroke-linejoin:round;stroke-miterlimit:4;stroke-dasharray:none;stroke-opacity:1"/><path d="M134.902 821.322c.175 1.094-.638 2.113-1.815 2.276-1.178.163-2.274-.593-2.449-1.687-.175-1.094.638-2.113 1.815-2.276 1.177-.163 2.274.593 2.449 1.687zM132.937 799.843c.175 1.094-.638 2.113-1.815 2.275-1.177.163-2.273-.592-2.448-1.687-.175-1.094.637-2.113 1.815-2.276 1.177-.162 2.273.593 2.448 1.688zM151.17 798.937c.175 1.094-.637 2.113-1.815 2.276-1.177.162-2.273-.593-2.448-1.687-.175-1.095.637-2.114 1.815-2.276 1.177-.163 2.273.592 2.448 1.687zM163.701 804.889c.175 1.094-.638 2.113-1.815 2.276-1.177.162-2.273-.593-2.448-1.687-.175-1.095.637-2.114 1.815-2.276 1.177-.163 2.273.593 2.448 1.687zM154.71 822.097c.174 1.095-.638 2.114-1.816 2.276-1.177.163-2.273-.592-2.448-1.687-.175-1.094.637-2.113 1.815-2.276 1.177-.162 2.273.593 2.448 1.687zM149.377 825.195c.175 1.094-.637 2.113-1.815 2.276-1.177.162-2.273-.593-2.448-1.687-.175-1.095.637-2.114 1.815-2.276 1.177-.163 2.273.593 2.448 1.687zM139.922 824.532c.175 1.094-.638 2.113-1.815 2.276-1.178.162-2.274-.593-2.449-1.687-.175-1.095.638-2.114 1.815-2.276 1.178-.163 2.274.593 2.449 1.687z" style="fill:#e2cf00;fill-opacity:1;stroke:#131f67;stroke-width:.755906;stroke-linejoin:round;stroke-miterlimit:4;stroke-dasharray:none;stroke-opacity:.941176"/><path d="M87.834 823.652c.175 1.094-.638 2.113-1.815 2.275-1.177.163-2.274-.592-2.449-1.687-.175-1.094.638-2.113 1.815-2.276 1.178-.162 2.274.593 2.449 1.688z" style="fill:#e2cf00;fill-opacity:1;stroke:#131f67;stroke-width:.755906;stroke-linejoin:round;stroke-miterlimit:4;stroke-dasharray:none;stroke-opacity:1"/><path d="M110.526 774.224c.175 1.094-.638 2.113-1.815 2.275-1.178.163-2.274-.592-2.449-1.687-.175-1.094.638-2.113 1.815-2.276 1.178-.162 2.274.593 2.449 1.688zM136.418 779.917c.175 1.094-.638 2.113-1.815 2.276-1.178.162-2.274-.593-2.449-1.687-.175-1.095.638-2.114 1.815-2.276 1.178-.163 2.274.592 2.449 1.687z" style="fill:#e2cf00;fill-opacity:1;stroke:#131f67;stroke-width:.755906;stroke-linejoin:round;stroke-miterlimit:4;stroke-dasharray:none;stroke-opacity:.941176"/><path d="m109.614 830.687-.804-7.062" style="fill:none;stroke:#000;stroke-width:.566929;stroke-linecap:butt;stroke-linejoin:miter;stroke-miterlimit:4;stroke-dasharray:none;stroke-opacity:1"/><path d="M95.933 816.298c-.149.405-.7 2.918-.06 5.047 0 0 2.798 1.492 4.256 2.263 3.395 1.797 9.404 6.286 9.404 6.286l1.135-.63-.356-6.633-1.897.533c-4.344-1.006-8.775-4.326-12.482-6.866z" style="fill:#131f67;stroke:#131f67;stroke-width:.755906;stroke-miterlimit:4;stroke-dasharray:none;stroke-opacity:.94118"/><path d="m109.844 822.21-3.074-.959c-4.002-2.497-3.273-1.835-5.462-3.287l-2.879-2.786-2.55-.4-.09 1.127 5.61 4.159 6.747 3.04z" style="stroke:#131f67;stroke-width:.755906;stroke-miterlimit:4;stroke-dasharray:none"/><path d="M96.81 781.429c-4.526-6.252-9.036-7.855-16.112-13.5-4.914.334-5.095 2.97-8.992 5.313 5.204 6.479 12.614 6.263 14.751 12.678z" style="fill:#131f67;fill-opacity:1;stroke:#131f67;stroke-width:.756;stroke-miterlimit:4;stroke-dasharray:none;stroke-opacity:1"/></g></svg>