<svg xmlns="http://www.w3.org/2000/svg" width="234" height="333"><rect width="233.244" height="332.244" x=".378" y=".378" rx="8.919" ry="8.946" style="fill:#fff;fill-opacity:1;stroke:gray;stroke-width:.75590545;stroke-linecap:butt;stroke-linejoin:miter;stroke-miterlimit:4.30000019;stroke-dasharray:none;stroke-opacity:1"/><path d="M12.899 61.34c0-.556-.031-.958-.031-1.514h3.545V57.09c-2.244.072-4.673.239-6.774-.687-1.627-.893-2.076-2.97-1.748-4.68.281-1.927 1.353-3.639 2.75-4.957 1.82-1.946 4.14-3.26 6.562-4.316 2.472 1.075 4.843 2.431 6.685 4.428 1.66 1.56 2.765 3.763 2.731 6.07.036 1.666-.995 3.426-2.697 3.79-1.904.527-3.83.433-5.785.352v2.737h3.353c0 .556.03.958.03 1.514a665.864 665.864 0 0 0-8.621 0zM212.488 271.66c0 .556-.031.958-.031 1.514h3.545v2.737c-2.244-.072-4.673-.239-6.774.687-1.627.893-2.076 2.97-1.748 4.68.28 1.927 1.352 3.639 2.75 4.957 1.82 1.946 4.14 3.26 6.562 4.316 2.472-1.075 4.843-2.431 6.685-4.428 1.66-1.56 2.765-3.763 2.731-6.07.036-1.666-.996-3.426-2.697-3.79-1.904-.527-3.83-.433-5.785-.352v-2.737h3.353c0-.556.03-.958.03-1.514-2.632.019-5.778.019-8.621 0z" style="fill:#000;stroke:none;stroke-width:1"/><g aria-label="A" style="font-style:normal;font-variant:normal;font-weight:700;font-stretch:normal;line-height:0%;font-family:&quot;Levenim MT&quot;;-inkscape-font-specification:&quot;Sans Bold&quot;;letter-spacing:0;word-spacing:0;fill:#000;fill-opacity:1;stroke:none;stroke-width:3.18132639"><path d="M100.973 94.838H86.16l-5.853-15.423h-30.54l-6.107 15.423H28.849l28.86-74.872h14.455ZM74.963 65.52l-9.925-25.704-9.976 25.704Z" style="font-size:104.24028015px;line-height:1.25;stroke-width:3.18132639" transform="matrix(.26107 0 0 .37847 .26 .259)"/></g><g aria-label="A" style="font-style:normal;font-variant:normal;font-weight:700;font-stretch:normal;line-height:0%;font-family:&quot;Levenim MT&quot;;-inkscape-font-specification:&quot;Sans Bold&quot;;letter-spacing:0;word-spacing:0;fill:#000;fill-opacity:1;stroke:none;stroke-width:3.18132639"><path d="M-793.356-783.658h-14.811l-5.854-15.423h-30.539l-6.108 15.423h-14.811l28.86-74.872h14.454zm-26.01-29.318-9.924-25.704-9.977 25.704z" style="font-size:104.24028015px;line-height:1.25;stroke-width:3.18132639" transform="matrix(-.26107 0 0 -.37847 .26 .259)"/></g><path d="M49.302 202.548c-14.553-7.985-18.568-26.573-15.634-41.855 2.511-17.24 12.098-32.552 24.605-44.344 16.275-17.404 37.032-29.153 58.701-38.606 22.12 9.613 43.334 21.746 59.815 39.61 14.846 13.947 24.737 33.66 24.433 54.299.322 14.897-8.908 30.64-24.133 33.89-17.032 4.715-34.27 3.879-60.764 3.838-26.494-.04-48.222 1.45-67.023-6.832z" style="fill:#fff;stroke:#000;stroke-width:4.72440958;stroke-miterlimit:4;stroke-dasharray:none"/><path d="M81.784 238.64v-12.438h27.602v-22.104c-18.148.585-36.588 2.033-53.583-5.47-13.156-7.234-16.786-24.073-14.134-37.917 2.27-15.619 10.937-29.489 22.243-40.171 14.713-15.767 33.476-26.41 53.065-34.974 19.995 8.709 39.172 19.7 54.071 35.882 13.42 12.635 22.362 30.493 22.087 49.19.291 13.495-8.053 27.757-21.816 30.701-15.396 4.272-30.9 3.514-46.705 2.855v22.008h27.602v12.437c-21.29-.15-70.432.043-70.432 0z" style="fill:#000;stroke:none;stroke-width:1"/><path d="M137.067 150.771c0 22.412-8.967 40.583-20.029 40.583-11.061 0-20.029-18.169-20.029-40.583 0-22.412 8.968-40.582 20.03-40.582 11.06 0 20.028 18.168 20.028 40.582z" style="fill:#fff;stroke-width:.61460602"/><path d="M116.342 154.1c-1.816 1.383-2.22 1.847-3.224 3.377-.364.59-1.042 1.97-1.227 2.896-.186.926-.325 2.269-.324 2.98.002 2.41.769 3.922 1.606 3.87.748-.087 1.7-.867 3.142-2.64" style="fill-rule:evenodd;stroke:#000;stroke-width:.75590551;stroke-miterlimit:4;stroke-dasharray:none"/><path d="M117.65 154.137c1.816 1.383 2.22 1.847 3.224 3.377.364.59 1.042 1.97 1.227 2.896.186.926.325 2.269.324 2.98-.002 2.41-.769 3.922-1.606 3.87-.748-.086-1.7-.867-3.142-2.64" style="fill-rule:evenodd;stroke:#000;stroke-width:.75590551;stroke-linejoin:bevel;stroke-miterlimit:4;stroke-dasharray:none"/><path d="M93.222 149.57c-3.583-3.488-6.088-9.542-6.436-16.079-.38-7.204 3.414-14.358 9.091-18.436 6.365-4.484 17.006-5.723 23.623-5.389 4.482.003 14.465 2.329 17.989 4.956 6.181 4.498 9.496 10.883 9.726 18.16.34 7.31-2.737 12.878-6.504 16.353" style="fill:#fff;stroke:#000;stroke-width:1.13385832;stroke-linecap:round;stroke-linejoin:round;stroke-miterlimit:4;stroke-dasharray:none"/><path d="M97.593 163.709c1.3 3.148 2.678 6.219 2.808 9.445-.598 2.602-.416 5.672.234 8.118.832 3.357 4.081 7.338 7.33 8.665 3.328 1.21 5.408 1.522 9.126 1.522" style="fill:#fff;stroke:#000;stroke-width:1.13385832;stroke-miterlimit:4;stroke-dasharray:none"/><path d="M100.854 164.715c1.066 2.503 1.396 3.868 2.165 6.362.655 2.305.896 3.712 1.3 6.987" style="fill:none;stroke:#000;stroke-width:1.13385832;stroke-miterlimit:4;stroke-dasharray:none"/><path d="M93.44 129.077c-1.452 1.272-1.268 3.183-1.007 6.036.207 2.168 1.589 4.302 1.661 6.282.508 4.179-.726 8.358-1.307 11.773-.4 3.925.727 7.304 2.179 8.612 1.452 1.29 3.326 1.825 5.296 2.426 1.79.468 2.717 1.283 4.07 2.293 1.613 1.713 1.997 3.13 1.961 4.874" style="fill:#fff;stroke:#000;stroke-width:1.13385832;stroke-linejoin:round;stroke-miterlimit:4;stroke-dasharray:none"/><path d="M136.393 163.709c-1.3 3.148-2.677 6.219-2.807 9.445.597 2.602.416 5.672-.234 8.118-.832 3.357-4.12 7.22-7.37 8.548-3.25 1.327-5.33 1.64-9.048 1.64" style="fill:#fff;stroke:#000;stroke-width:1.13385832;stroke-miterlimit:4;stroke-dasharray:none"/><path d="M106.006 171.503c2.631 1.616 7.181 1.382 11.257 1.309 4.541-.023 8.429-.352 10.981-1.897M106.371 175.396c3.042 1.913 6.62 2.57 10.74 2.415 4.28-.105 7.56-.465 10.492-2.47" style="fill:none;stroke:#000;stroke-width:1.13385832;stroke-miterlimit:4;stroke-dasharray:none"/><g style="fill:none;stroke:#000;stroke-width:6.04941225;stroke-miterlimit:4;stroke-dasharray:none"><path d="M229.89 385.64c17.367 20.948 41.608 24.585 69.173 25.315 29.519 1.077 59.166-10.645 66.819-25.314" style="stroke-width:6.04941225;stroke-miterlimit:4;stroke-dasharray:none" transform="matrix(.18735 0 0 .18752 61.094 105.4)"/><g style="stroke-width:6.04941225;stroke-miterlimit:4;stroke-dasharray:none"><path d="m240.704 350.947.32 44.525M254.97 358.63l-.208 44.126M269.96 360.5l-.416 46.208M283.49 361.54l-.209 46.832M298.68 361.96v46.832M313.25 359.173l.208 49.409" style="stroke-width:6.04941225;stroke-miterlimit:4;stroke-dasharray:none" transform="matrix(.18735 0 0 .18752 61.094 105.4)"/><path d="m326.78 360.5.416 46" style="stroke-width:6.04941225;stroke-miterlimit:4;stroke-dasharray:none" transform="matrix(.18735 0 0 .18752 61.016 105.4)"/><path d="m341.56 358 .208 44.126M357.14 350.013l-1.423 44.205" style="stroke-width:6.04941225;stroke-miterlimit:4;stroke-dasharray:none" transform="matrix(.18735 0 0 .18752 61.094 105.4)"/></g></g><path d="M133.12 164.646c-1.066 2.503-1.464 3.799-2.233 6.293-.655 2.305-.896 3.712-1.3 6.987" style="fill:none;stroke:#000;stroke-width:1.13385832;stroke-miterlimit:4;stroke-dasharray:none"/><path d="M100.9 143.571c2.522-.442 4.966-.728 7.487-1.015 3.302-.832 4.966 2.94 4.056 5.777-1.144 2.524-2.756 4.735-4.601 6.87-1.43 1.612-3.134 1.873-4.758 1.326-1.31-.364-2.522-1.17-3.822-3.044-.571-1.614-1.065-2.446-1.793-4.45-.572-1.847.317-4.613 3.432-5.464z" style="fill-rule:evenodd;stroke:#000;stroke-width:.75590551;stroke-miterlimit:4;stroke-dasharray:none"/><path d="M140.726 128.967c1.453 1.272 1.27 3.184 1.008 6.037-.206 2.168-1.588 4.301-1.661 6.282-.508 4.179.726 8.357 1.307 11.773.4 3.924-.726 7.304-2.178 8.612-1.453 1.29-4.11 1.983-5.296 2.426-1.383.484-2.796 1.36-4.071 2.37-1.535 1.48-1.997 3.053-1.96 4.797" style="fill:#fff;stroke:#000;stroke-width:1.13385832;stroke-linejoin:round;stroke-miterlimit:4;stroke-dasharray:none"/><path d="M133.14 143.571c-2.521-.442-4.965-.728-7.487-1.015-3.301-.832-4.965 2.94-4.055 5.777 1.144 2.524 2.755 4.735 4.601 6.87 1.43 1.612 3.133 1.873 4.758 1.326 1.31-.364 2.522-1.17 3.821-3.044.572-1.614 1.066-2.446 1.794-4.45.572-1.847-.318-4.613-3.432-5.464z" style="fill-rule:evenodd;stroke:#000;stroke-width:.75590551;stroke-miterlimit:4;stroke-dasharray:none"/><path d="m103.942 207.513-.15 13.543h-27.25v22.603h81.749v-22.603h-28.084v-12.069" style="fill:none;stroke:#000;stroke-width:4.72440958;stroke-linecap:butt;stroke-linejoin:miter;stroke-miterlimit:4;stroke-dasharray:none;stroke-opacity:1"/><rect width="3.147" height="5.564" x="106.194" y="206.893" rx="0" ry="0" style="fill:#fff;fill-opacity:1;stroke:none;stroke-width:1"/><rect width="3.307" height="5.57" x="124.584" y="206.764" rx="0" ry="0" style="fill:#fff;fill-opacity:1;stroke:none;stroke-width:1"/><g aria-label="IS DUTY PAID" style="font-style:normal;font-variant:normal;font-weight:400;font-stretch:normal;line-height:0%;font-family:&quot;Levenim MT&quot;;-inkscape-font-specification:Sans;letter-spacing:0;word-spacing:0;fill:#000;fill-opacity:1;stroke:none;stroke-width:3.18132639"><path d="M235.991 836.966h-6.516V802.49h6.516zM262.03 828.06q0 4.453-3.094 7.172-2.953 2.601-7.476 2.601-7.336 0-11.086-7.476l5.508-3.328q2.484 4.57 5.718 4.57 1.5 0 2.672-.867 1.313-.938 1.313-2.39 0-1.524-1.735-3.352-.68-.727-2.953-2.578-4.242-3.47-5.765-5.204-3.141-3.539-3.141-6.867 0-3.797 2.883-6.304 2.742-2.415 6.586-2.415 5.18 0 9.96 5.555l-4.85 4.29q-2.556-3.563-5.204-3.563-1.078 0-1.945.562-.985.656-.985 1.688 0 .867.586 1.64.82 1.078 4.805 4.43 3.82 3.211 4.547 3.961 3.656 3.727 3.656 7.875zM311.694 820.208q0 8.157-4.969 12.868-2.836 2.648-6.75 3.445-2.297.445-7.734.445h-7.898V802.49h7.78q6.47 0 9.938 1.336 4.547 1.757 7.266 6.586 2.367 4.195 2.367 9.796zm-6.633-.164q0-11.226-11.953-11.226h-2.226v21.726h3.046q3.82 0 5.72-.703 2.624-.984 4.124-3.797 1.29-2.437 1.29-6zM341.085 823.044q0 4.266-.305 5.907-.539 2.976-2.508 5.203-3.258 3.68-8.836 3.68-3.375 0-6.164-1.5-3-1.641-4.336-4.547-1.195-2.579-1.195-8.743V802.49h6.586v22.312q0 2.297.281 3.352.446 1.758 1.899 2.625 1.148.726 2.789.726 3.61 0 4.734-2.836.469-1.218.469-4.687V802.49h6.586zM364.382 808.958H358.1v28.008h-6.656v-28.008h-6.117v-6.468h19.055zM393.233 802.49l-10.078 19.547v14.93h-6.61v-14.93l-10.124-19.547h7.054l6.422 12.375 6.375-12.375zM435.186 812.497q0 3.493-1.828 5.93-1.828 2.438-5.18 3.399-1.875.539-6.914.539v14.601h-6.562V802.49h6.96q4.524 0 6.75.61 3.563.937 5.345 3.796 1.43 2.344 1.43 5.602zm-6.351 0q0-1.992-1.547-2.906-1.149-.68-4.172-.68h-1.852v7.055h2.086q3.914 0 4.946-1.523.539-.797.539-1.946zM472.053 836.966h-6.82l-2.695-7.101h-14.063l-2.812 7.101h-6.82l13.289-34.476h6.656zm-11.976-13.5-4.57-11.836-4.594 11.836zM483.21 836.966h-6.516V802.49h6.516zM517.944 820.208q0 8.157-4.969 12.868-2.836 2.648-6.75 3.445-2.297.445-7.734.445h-7.898V802.49h7.78q6.47 0 9.938 1.336 4.547 1.757 7.266 6.586 2.367 4.195 2.367 9.796zm-6.633-.164q0-11.226-11.953-11.226h-2.226v21.726h3.046q3.82 0 5.72-.703 2.624-.984 4.124-3.797 1.29-2.437 1.29-6z" style="font-weight:700;font-size:48px;line-height:1.25;-inkscape-font-specification:&quot;Levenim MT Bold&quot;;stroke-width:3.18132639" transform="matrix(.31382 0 0 .31485 .26 .259)"/></g><g aria-label="LIVING A GOOD LIFE" style="font-style:normal;font-variant:normal;font-weight:400;font-stretch:normal;font-size:48px;line-height:0%;font-family:&quot;Levenim MT&quot;;-inkscape-font-specification:Sans;letter-spacing:0;word-spacing:0;fill:#000;fill-opacity:1;stroke:none;stroke-width:3.18132639"><path d="m183.839 328.405-10.565 12.182-26.046-22.59 4.3-4.957 21.318 18.489 6.265-7.224zM191.637 320.614l-4.591 4.623-24.462-24.295 4.592-4.623zM196.552 270.694l12.47 34.459-4.868 4.043-31.42-18.722 5.193-4.313 22.318 13.302-8.886-24.457zM228.124 290.982l-5.334 3.743-19.804-28.221 5.333-3.743zM257.494 271.925l-5.317 3.388-24.607-11.137 12.155 19.073-5.534 3.527-18.53-29.074 5.298-3.376 24.665 11.184-12.194-19.132 5.535-3.527zM286.606 237.24q2.177 3.698 2.049 8.653-.235 9.605-9.022 14.396-4.61 2.514-9.317 2.545-4.897.027-9.22-2.661-4.225-2.609-6.615-6.992-3.276-6.008-1.728-12.618 1.828-7.858 9.38-11.976 7.8-4.252 16.175-1.425l-1.866 6.223q-6.07-1.976-11.193.818-4.383 2.39-5.837 6.92-1.493 4.605.885 8.967 2.457 4.507 7.285 5.772 4.744 1.258 9.27-1.21 5.906-3.221 5.507-9.73l-8.766 4.78-2.951-5.413 15.227-8.303zM342.512 230.619l-6.322 2.557-5.162-5.573-13.036 5.274.055 7.638-6.322 2.557-.61-36.944 6.171-2.496zm-16.165-8.024-8.675-9.259.18 12.695zM397.642 208.2q-.22 4.285-3.057 8.35-5.488 7.886-15.46 7.044-5.232-.442-9.178-3.01-4.102-2.675-6.228-7.3-2.09-4.505-1.669-9.48.576-6.819 5.51-11.482 5.855-5.55 14.426-4.827 8.851.748 14.283 7.722l-4.985 4.166q-3.977-4.993-9.792-5.485-4.974-.42-8.684 2.56-3.783 3.02-4.201 7.971-.432 5.115 2.9 8.83 3.265 3.663 8.403 4.097 6.703.567 9.956-5.086l-9.949-.84.519-6.143 17.282 1.46zM439.36 226.115q-2.731 7.01-9.42 10.038-6.68 3.007-13.69.276-7.097-2.765-10.04-9.546-2.942-6.78-.177-13.878 1.787-4.586 5.499-7.592 3.712-3.007 8.558-3.76 4.763-.734 9.262 1.018 6.988 2.723 9.888 9.613 2.851 6.82.12 13.83zm-6.098-2.426q1.77-4.543.012-8.875-1.798-4.423-6.319-6.184-4.63-1.804-8.85.249-4.143 1.983-5.956 6.634-2.076 5.329.538 9.919 2.025 3.581 5.87 5.079 4.476 1.744 8.77-.306 4.174-1.996 5.935-6.516zM476.97 244.312q-3.315 6.754-10.236 9.205-6.91 2.43-13.664-.884-6.838-3.356-9.196-10.361-2.358-7.006.998-13.844 2.169-4.418 6.121-7.1 3.953-2.68 8.846-3.02 4.808-.33 9.143 1.797 6.733 3.305 9.039 10.415 2.263 7.038-1.051 13.792zm-5.87-2.934q2.147-4.376.762-8.842-1.418-4.56-5.773-6.697-4.46-2.189-8.84-.5-4.296 1.625-6.495 6.106-2.52 5.134-.304 9.929 1.715 3.74 5.418 5.557 4.313 2.117 8.766.438 4.328-1.635 6.465-5.99zM506.9 262.37q-4.17 7.01-10.849 8.517-3.791.826-7.562-.49-2.202-.792-6.875-3.572l-6.788-4.039 17.628-29.629 6.687 3.979q5.56 3.307 7.858 6.229 3.008 3.835 2.876 9.375-.11 4.816-2.974 9.63zm-5.616-3.533q5.74-9.648-4.532-15.76l-1.914-1.138-11.109 18.672 2.619 1.558q3.283 1.953 5.274 2.32 2.76.496 5.487-1.154 2.354-1.436 4.175-4.498zM529.62 299.109l-12.899-9.678 20.691-27.577 5.25 3.938-16.936 22.572 7.649 5.74zM538.015 306.249l-4.978-4.204 22.244-26.34 4.978 4.203zM566.725 311.717l-7.686-7.325-10.704 11.233-4.7-4.479 23.784-24.96 12.387 11.804-4.414 4.632-7.687-7.324-4.317 4.53 7.687 7.324zM572.871 341.022l-12.79-13.807 25.293-23.43 12.79 13.807-4.711 4.365-8.362-9.027-4.574 4.236 8.362 9.027-4.625 4.285-8.362-9.027-6.654 6.164 8.362 9.027z" style="font-weight:700;-inkscape-font-specification:&quot;Levenim MT Bold&quot;;stroke-width:3.18132639" transform="matrix(.31382 0 0 .31485 .26 .259)"/></g><path d="M53.875 108.472c8.537-10.664 16.548-15.92 27.24-22.59 10.889-6.654 23.271-12.425 36.261-15.968 12.99 3.543 25.96 9.397 36.85 16.05 10.691 6.672 17.337 12.038 26.504 22.508" style="fill:none;stroke:none;stroke-width:.65088296px;stroke-linecap:butt;stroke-linejoin:miter;stroke-opacity:1"/></svg>