<svg xmlns="http://www.w3.org/2000/svg" fill="currentColor" viewBox="0 0 379.18 376.76"><path d="M469.55 603.48c0 8.155-61.151 14.766-136.58 14.766-75.433 0-136.58-6.61-136.58-14.766 0-8.155 61.151-14.766 136.58-14.766 75.433 0 136.58 6.61 136.58 14.766z" style="fill:#000" transform="translate(-125.812 -276.919)"/><path d="M-156.52 622.68c0 43.221-3.966 78.259-8.86 78.259s-8.859-35.038-8.859-78.259 3.966-78.259 8.86-78.259 8.859 35.038 8.859 78.259z" style="stroke-linejoin:round;stroke:#000;stroke-linecap:round;stroke-width:3.6;fill:#fff" transform="rotate(17.967 1162.016 1443.035)"/><path d="M-156.52 622.68c0 43.221-3.966 78.259-8.86 78.259s-8.859-35.038-8.859-78.259 3.966-78.259 8.86-78.259 8.859 35.038 8.859 78.259z" style="stroke-linejoin:round;stroke:#000;stroke-linecap:round;stroke-width:3.6;fill:#fff" transform="rotate(17.967 1174.657 1522.99)"/><path d="M-156.52 622.68c0 43.221-3.966 78.259-8.86 78.259s-8.859-35.038-8.859-78.259 3.966-78.259 8.86-78.259 8.859 35.038 8.859 78.259z" style="stroke-linejoin:round;stroke:#000;stroke-linecap:round;stroke-width:3.6;fill:#fff" transform="rotate(-8.833 -2366.022 -2277.18)"/><path d="M-156.52 622.68c0 43.221-3.966 78.259-8.86 78.259s-8.859-35.038-8.859-78.259 3.966-78.259 8.86-78.259 8.859 35.038 8.859 78.259z" style="stroke-linejoin:round;stroke:#000;stroke-linecap:round;stroke-width:3.6;fill:#fff" transform="rotate(-8.833 -2353.62 -2437.733)"/><path d="M444.12 255.32c-8.836 0-16.556 4.794-20.719 11.906-4.358-6.026-11.433-9.938-19.438-9.938-9.937 0-18.452 6.046-22.094 14.656-4.296-6.474-11.679-10.75-20.031-10.75-12.726 0-23.104 9.914-23.906 22.438a23.914 23.914 0 0 0-11.344-2.843c-13.249 0-23.969 10.75-23.969 24 0 1.862.192 3.666.594 5.406-12.848.456-23.125 11.009-23.125 23.969 0 7.882 3.787 14.877 9.656 19.25-12.035 1.288-21.406 11.435-21.406 23.812 0 11.426 7.991 20.99 18.688 23.406-3.693 4.22-5.969 9.733-5.969 15.78 0 13.25 10.751 23.97 24 23.97a23.842 23.842 0 0 0 14.344-4.75c-.72 2.28-1.125 4.7-1.125 7.219 0 13.249 10.751 23.969 24 23.969 6.182 0 11.81-2.355 16.062-6.188 1.33.552 2.672 1.085 4.031 1.594.42 12.883 10.985 23.219 23.97 23.219 9.996 0 18.55-6.12 22.155-14.812 3.067 9.717 12.144 16.75 22.875 16.75 11.724 0 21.47-8.384 23.562-19.5 3.406 9.103 12.177 15.594 22.47 15.594 13.25 0 24-10.751 24-24 0-2.484-.393-4.871-1.094-7.125 3.99 2.962 8.961 4.688 14.312 4.688 13.249 0 23.969-10.752 23.969-24a23.854 23.854 0 0 0-5.907-15.75c10.681-2.427 18.656-11.992 18.656-23.407 0-9.273-5.267-17.32-12.969-21.312 8.224-3.804 13.938-12.125 13.938-21.78 0-12.613-9.73-22.91-22.094-23.876a23.958 23.958 0 0 0 1.532-8.437c0-13.249-10.751-23.969-24-23.969-1.862 0-3.667.192-5.407.594-.456-12.848-11.009-23.125-23.969-23.125-3.866 0-7.515.938-10.75 2.562-2.213-10.962-11.885-19.219-23.5-19.219z" style="stroke-linejoin:round;stroke:#000;stroke-linecap:round;stroke-width:3.6;fill:#fff" transform="translate(-210.37 -192.27)"/><path d="M358.11 450.31c5.31 24.786-5.52 40.505-24.189 35.11-18.67-5.395-11.257-31.396-16.567-56.182-5.31-24.786-21.333-38.971-2.663-33.576 18.67 5.395 38.11 29.862 43.42 54.648zM149.17 449.15c-6.543 24.49 3.488 40.731 22.404 36.276 18.916-4.455 12.812-30.794 19.355-55.283 6.543-24.49 23.255-37.856 4.339-33.401-18.916 4.455-39.555 27.919-46.098 52.409z" style="stroke-linejoin:round;stroke:#000;stroke-linecap:round;stroke-width:4.255;fill:#fff" transform="translate(-109.59 -288.732)"/><path d="M312.69 446.95c0 47.59-26.304 68.169-58.752 68.169s-58.752-20.579-58.752-68.169 26.304-104.17 58.752-104.17 58.752 56.579 58.752 104.17z" style="stroke-linejoin:round;stroke:#000;stroke-linecap:round;stroke-width:3.6;fill:#fff" transform="translate(-109.59 -288.732)"/><path d="M94.982 714.05c0 15.413-15.125 27.907-33.782 27.907s-33.782-12.494-33.782-27.907 15.125-27.907 33.782-27.907 33.782 12.494 33.782 27.907z" style="stroke-linejoin:round;stroke:#000;stroke-linecap:round;stroke-width:3.6;fill:#fff" transform="translate(44.48 -608.592)"/><path d="M180.17 708.67c0 20.009-16.221 36.23-36.23 36.23s-36.23-16.221-36.23-36.23 16.221-36.23 36.23-36.23 36.23 16.221 36.23 36.23z" style="stroke-linejoin:round;stroke:#000;stroke-linecap:round;stroke-width:3.6;fill:#fff" transform="translate(32.72 -601.732)"/><path d="M226.94 482.41c7.07 7.123 15.818 10.406 25.406 10.406 7.022 0 13.593-1.764 19.375-5.5l1.531 2.625c-6.276 4.02-13.402 6-20.906 6-1.111 0-2.218-.039-3.312-.125-.754 7.104-.277 13.206 3.625 17.344l-2.625 2.469c-5.004-5.307-5.382-12.673-4.563-20.25-7.62-1.289-14.673-4.788-20.562-10.625.676-.788 1.358-1.563 2.031-2.344z" style="block-progression:tb;text-indent:0;color:#000;text-transform:none;fill:#000" transform="translate(-109.59 -288.732)"/><path d="M235.51 400.45a8.121 8.121 0 1 1-16.242 0 8.121 8.121 0 0 1 16.242 0zM276.86 399.71a8.121 8.121 0 1 1-16.242 0 8.121 8.121 0 0 1 16.242 0z" style="stroke-linejoin:round;stroke:#000;stroke-linecap:round;stroke-width:3.6;fill:#000" transform="translate(-109.59 -288.732)"/><path d="M364.9 231.27s18.306-6.73 31.739-1.712 21.22 21.79 21.22 21.79c-2.778 1.795-2.89 4.067-4.388 2.216-5.554-6.868-11.996-12.5-20.092-15.826-6.999-2.874-16.99 6.585-23.989-.625-3.422-3.527-1.224-2.428-4.49-5.843zM349.79 259.96s-14.988-12.481-29.326-12.259c-14.338.222-27.3 13.408-27.3 13.408 2.014 2.623 1.359 4.802 3.39 3.56 7.537-4.607 15.494-7.752 24.237-8.17 7.558-.36 13.797 11.904 22.809 7.458 4.407-2.174 1.967-1.876 6.19-3.997z" style="fill:#000" transform="translate(-210.37 -192.27)"/><path d="M401.76 395.65c4.295-11.326.262-21.183-7.434-30.159 6.338 1.553 16.178 3.668 14.563 12.829-1.131 6.661-3.929 12.893-7.129 17.33z" style="stroke:#000;stroke-width:3.6;fill:#fff" transform="translate(-210.37 -192.27)"/><path d="M395.18 358.26c-10.165-1.666-12.959 9.21-10.004 15.892-10.013-10.346-2.893-22.27 10.004-15.892z" style="fill:#000" transform="translate(-210.37 -192.27)"/></svg>